<?xml version="1.0" encoding="utf-8"?>
<!-- Generator: Adobe Illustrator 23.1.0, SVG Export Plug-In . SVG Version: 6.00 Build 0)  -->
<svg version="1.1" id="Layer_1" xmlns="http://www.w3.org/2000/svg" xmlns:xlink="http://www.w3.org/1999/xlink" x="0px" y="0px"
	 viewBox="0 0 210.7 210.7" style="enable-background:new 0 0 210.7 210.7;" xml:space="preserve">
<style type="text/css">
	.st0{fill:#304C56;}
	.st1{display:none;}
	.st2{display:inline;fill:none;stroke:#006600;stroke-width:7;stroke-miterlimit:10;}
	.st3{display:inline;fill:#006600;}
	.st4{display:inline;}
	.st5{fill:#006600;}
	.st6{display:inline;fill:#006600;stroke:#006600;stroke-miterlimit:10;}
	.st7{display:inline;fill:#FFFFFF;stroke:#006600;stroke-miterlimit:10;}
</style>
<g>
	<path class="st0" d="M105.3,0C47.3,0,0,47.3,0,105.3c0,58.1,47.3,105.3,105.3,105.3c58.1,0,105.3-47.3,105.3-105.3
		C210.7,47.3,163.4,0,105.3,0z M12.4,105.3c0-51.2,41.7-92.9,92.9-92.9c4.4,0,8.8,0.3,13.1,0.9V99l-26.1,0.1V56.5H79.9v112.1h12.4
		v-57l26.1-0.1v85.8c-4.3,0.6-8.6,0.9-13.1,0.9C54.1,198.3,12.4,156.6,12.4,105.3z M130.8,194.7V16c38.9,11.1,67.5,47,67.5,89.4
		S169.7,183.6,130.8,194.7z"/>
</g>
<g class="st1">
	<circle class="st2" cx="105.3" cy="105.3" r="101.8"/>
	<path class="st3" d="M74.1,37.3L71,37.7c-0.7,0.1-17.3,2.8-23.2,18.3c-3.3,8.5-1.7,15.3,0.9,23.4l6.7-2.2
		C52.8,69,52,64.4,54.3,58.6c0.6-1.6,1.5-3,2.5-4.3c-0.7,5.3,0.6,10.8,4.3,15.2c6.9,8.2,19.2,9.2,27.3,2.3
		c8.2-6.9,9.2-19.2,2.3-27.3C85.9,38.8,80.4,36.6,74.1,37.3z"/>
	<path class="st3" d="M145.2,38.7l-3.2-0.1c-0.7,0-17.5,0-25.9,14.3c-4.6,7.9-4.2,14.8-2.9,23.2l6.9-1c-1.3-8.5-1.3-13.2,2-18.5
		c0.9-1.5,2-2.7,3.2-3.8c-1.6,5.1-1.1,10.8,1.8,15.7c5.5,9.2,17.4,12.2,26.6,6.8c9.2-5.5,12.2-17.4,6.8-26.6
		C156.6,42.1,151.5,39,145.2,38.7z"/>
	<g class="st4">
		<path class="st5" d="M106.4,175.8c43.9,0,79.5-35,79.5-78.2h-159C26.9,140.7,62.5,175.8,106.4,175.8z"/>
	</g>
</g>
<g id="Layer_3" class="st1">
	<path class="st6" d="M169.9,191.7l-9.7,6.6c-5.7,3.9-13,2.9-13.7-4.7L46.6,46.3c-6.1-2.3-4.2-9.5,1.5-13.3l9.7-6.6
		c5.7-3.9,13-2.9,14.3,4.6l99.7,147.3C177.4,180.7,175.5,187.9,169.9,191.7z"/>
	<path class="st7" d="M140.6,26.7l-7.9,1.8c-0.6,0.1-4.1,0.2-4.7,0.2l-4.6-0.4c-3.2-0.4-9,2.2-10.4,2.8l-9.9,4.5L67,57.2L40.7,77.7
		L30.4,88.4c-4,4.2-10.8,3.9-13.9-0.6L6.8,73.5c-3.3-4.9-0.9-11.9,5-14.3L25,53.8L53.6,37l29.5-22.5c1-0.6,2-1.1,3.8-1.8
		c7.3-2.5,14.9-3.2,22.3-2.1l7,1c3,0.4,5.9,1.1,8.7,2.1l6.5,2.2c2.4,1.6,4.8,4.2,6.1,6.1L140.6,26.7z"/>
</g>
<g id="Layer_4" class="st1">
	<path class="st3" d="M0,32.1v130.4h210.7V32.1H0z M104.3,107.6L14.2,39.1h180.3L104.3,107.6z M90.1,105.8l-82.8,47v-110L90.1,105.8
		z M96.2,110.4l5.9,4.5l2.2,1.6l1.4-1l8.6-6.5l79.7,46.5H17L96.2,110.4z M120.4,104.4l83-63v111.4L120.4,104.4z"/>
</g>
</svg>
