<?xml version="1.0" encoding="utf-8"?>
<!-- Generator: Adobe Illustrator 23.1.0, SVG Export Plug-In . SVG Version: 6.00 Build 0)  -->
<svg version="1.1" id="Layer_1" xmlns="http://www.w3.org/2000/svg" xmlns:xlink="http://www.w3.org/1999/xlink" x="0px" y="0px"
	 viewBox="0 0 99 86.6" style="enable-background:new 0 0 99 86.6;" xml:space="preserve">
<style type="text/css">
	.st0{fill:#FFFFFF;stroke:#FFFFFF;stroke-miterlimit:10;}
</style>
<path class="st0" d="M90.2,19.7H8.8c-4.6,0-8.3-3.7-8.3-8.3V8.8c0-4.6,3.7-8.3,8.3-8.3h81.3c4.6,0,8.3,3.7,8.3,8.3v2.5
	C98.5,16,94.8,19.7,90.2,19.7z"/>
<path class="st0" d="M90.2,52.9H8.8c-4.6,0-8.3-3.7-8.3-8.3v-2.5c0-4.6,3.7-8.3,8.3-8.3h81.3c4.6,0,8.3,3.7,8.3,8.3v2.5
	C98.5,49.2,94.8,52.9,90.2,52.9z"/>
<path class="st0" d="M90.2,86.1H8.8c-4.6,0-8.3-3.7-8.3-8.3v-2.5c0-4.6,3.7-8.3,8.3-8.3h81.3c4.6,0,8.3,3.7,8.3,8.3v2.5
	C98.5,82.4,94.8,86.1,90.2,86.1z"/>
</svg>
