<?xml version="1.0" encoding="utf-8"?>
<!-- Generator: Adobe Illustrator 23.1.0, SVG Export Plug-In . SVG Version: 6.00 Build 0)  -->
<svg version="1.1" id="Layer_1" xmlns="http://www.w3.org/2000/svg" xmlns:xlink="http://www.w3.org/1999/xlink" x="0px" y="0px"
	 viewBox="0 0 216 216" style="enable-background:new 0 0 216 216;" xml:space="preserve">
<style type="text/css">
	.st0{fill:#C4C4C4;}
</style>
<rect y="-0.6" class="st0" width="216" height="216"/>
<g>
	<path d="M26.9,99.6c0.2-0.1,0.4-0.5,0.8-0.3c0.1,0,0.3-0.2,0.4-0.3c0.5-0.5,1-1,1.5-1.6c-0.2-0.5-0.4-1.1-0.7-1.7
		c-1.2,0-2.4,0-3.7,0c-0.1-0.3-0.2-0.5-0.3-0.8c-1,0-2.1,0-3.2,0c0,0.2,0,0.5-0.1,0.7c-0.9,0.3-1.8,0.2-2.8-0.1c0-0.3-0.1-0.7-0.1-1
		c-0.3,0-0.6,0-0.9,0c0,0.4-0.1,0.8-0.1,1.3c-1.3,0-2.6,0-4,0c0-0.3-0.1-0.7-0.1-1.1c-0.4,0-0.8,0-1.3,0c-0.1-0.8-0.1-1.6,0-2.4
		c0-0.4,0.1-0.9,0.1-1.3c0-0.6,0-0.7,0.7-0.7c0.1,0,0.2,0,0.4,0c0-0.3,0.1-0.6,0.1-1c1.5,0,2.9,0,4.3,0.1c-0.1,0.4-0.1,0.8-0.2,1.2
		c0.4,0,0.6-0.1,0.9-0.1c0-0.3,0-0.5,0-0.8c0-0.4,0.2-0.5,0.5-0.6c0.7,0,1.5,0,2.2,0c0.1,0.3,0.1,0.5,0.2,0.7c1.1,0,2.2,0,3.3,0
		c0.2-1.2,0.2-0.9,1.2-0.9c0.3,0,0.7,0.1,1.1,0.1c0-0.4,0.1-0.8,0.1-1.3c1,0,2,0.1,3.1,0.1c0.1,0.3,0.1,0.8,0.2,1.3
		c0.8,0,1.5,0,2.3,0c0-0.2,0-0.5,0-0.7c0-0.6,0-0.6,0.6-0.7c0.9,0,1.9,0,2.9,0c0,0.5,0.1,1,0.1,1.4c0.5,0,1,0,1.4,0
		c0.3,0,0.6,0.1,0.7,0.5c0,0.1,0.1,0.3,0.3,0.4c1.2,1.1,2,2.4,2.4,3.9c0.3,1.1,0.1,2.1-0.2,3.2c-0.5,1.8-1.7,3-3.2,3.8
		c-0.2,0.1-0.4,0.2-0.6,0.4c0.1,1.9,0.1,3.7,0.2,5.6c0,1.7,0,3.5,0,5.2c0,1.2,0,2.5-0.1,3.7c0,0.4,0,0.7,0.4,1
		c0.2,0.2,0.2,0.6,0.3,0.9c0.6,0.2,0.6,0.2,0.7,0.9c0,0,0,0,0.1,0c1.1-0.1,1.1-0.1,1.1,1c0,1.2,0,2.4,0,3.6c0,0.7,0,0.7-0.7,0.8
		c-0.2,0-0.4,0.1-0.6,0.1c0,0.2,0,0.4,0,0.7c-0.4,0.4-0.9,0.3-1.3,0.2c-2.4-0.3-4.8-0.2-7.3-0.2c-1.6,0-3.1-0.1-4.7-0.1
		c-1.6,0-3.2,0.1-4.8,0.1c-0.4,0-0.8,0-1.2,0c-1.3,0-2.7-0.1-4,0.3c-0.7,0.2-1.5,0.1-2.1-0.3c-1.8-1.1-2.6-2.7-2.1-4.8
		c0.2-0.9,0.7-1.7,1.3-2.5c0.2-0.2,0.3-0.4,0.5-0.7c-0.1-0.2-0.3-0.4-0.4-0.6c-0.3-0.4-0.5-0.7-0.1-1.1c-0.2-0.3-0.4-0.6-0.6-0.8
		c-2.5-2.8-2-6.2-0.3-8.7c0.1-0.2,0.3-0.4,0.5-0.6c0.1-0.2,0.4-0.4,0.2-0.7c0-0.1,0.1-0.3,0.2-0.4c0.9-1,1.8-1.9,2.7-2.9
		c0.1-0.1,0.4-0.2,0.5-0.3c0.1-0.1,0.3-0.2,0.4-0.3c1.2-1.3,2.6-2.1,4.3-2.5c1-0.2,1.9-0.3,2.9,0c0.8,0.3,1.5,0.6,2.3,0.9
		C26.1,99.2,26.5,99.4,26.9,99.6z M17,113.5c2.3-3.3,4.9-6.3,7.5-9.2c0.3-0.4,0.6-0.8,0.9-1.2c-0.1-0.4-0.7-0.5-0.7-1
		c0-0.3-0.6-0.6-0.3-1.1c-0.8-0.4-2-0.7-2.7-0.7c-1.6,0.1-2.8,1-4,2c0,0-0.1,0.1-0.1,0.1c-0.7,1.4-1.8,2.5-2.7,3.6
		c-0.2,0.3-0.5,0.5-0.8,0.3c-1.4,1.6-1.5,5,0.2,6.8c0.2-0.1,0.3-0.2,0.5-0.3c0.3,0.2,0.6,0.5,0.9,0.7c0.2-0.1,0.4-0.3,0.6-0.4
		C16.6,113.3,16.8,113.4,17,113.5z M35.5,116.5c0-0.5,0-1-0.1-1.5c-0.1-1-0.1-2.1-0.2-3.1c0-0.7,0.1-1.4,0.1-2.1
		c0-2.6-0.1-5.2-0.1-7.8c0-0.2,0-0.3,0-0.5c0,0-0.1,0-0.1,0c-0.1,0.2-0.4,0.4-0.3,0.6c0.1,0.5-0.1,0.7-0.4,1c-0.3,0.4-0.7,0.8-1,1.1
		c0.7,0.8,0.7,0.8,0.1,1.5c-0.5,0.5-0.9,1.1-1.4,1.6c-0.4,0.5-0.5,0.5-1.1,0.3c-0.6,0.7-1.2,1.5-1.7,2.1c0.4,0.7,0.7,1.4,1.1,2.1
		c0.5,1,0.6,2.1,0.5,3.3c0,0.5,0,1,0,1.5c0.9,0.1,0.6,0.9,0.7,1.4c1.1,0,2.1,0,3.1,0c0-0.5,0-0.9,0-1.3
		C34.9,116.6,35.2,116.6,35.5,116.5z M38.3,118.4c-0.4,0-0.8,0-1.2,0c-2,0-4.1,0.1-6.1,0.1c-2.1,0-4.2-0.1-6.3-0.1
		c-0.6,0-1.1,0-1.7,0.1c-0.3,0-0.5,0.1-0.7,0.4c-0.5,0.8-1.1,1.6-1.7,2.4c-0.8,1.2-1.7,2.3-2.9,3.1c0,0,0,0.1-0.1,0.2
		c0.2,0,0.3,0,0.5,0c1.7-0.1,3.4-0.1,5.1-0.2c0.6,0,1.2-0.1,1.8-0.1c0.8,0,1.5,0.1,2.3,0.1c1.8,0,3.6-0.1,5.4-0.1
		c1.3,0,2.6,0,3.9,0.2c0.6,0.1,1.1,0,1.8,0C38.3,122.5,38.3,120.5,38.3,118.4z M25.6,95.2c0.1,0,0.2,0,0.3,0c1.9,0,3.8-0.1,5.6-0.1
		c0.2,0,0.4-0.2,0.5-0.3c0.5-0.5,0.9-1,1.4-1.5c1-0.9,2.2-1.6,3.6-1.5c0.4,0,0.8,0.2,1.2,0.2c0-0.9,0.1-1.7-0.2-2.6
		c-1,0-1.9,0-2.9,0c-0.5,0-1.1,0.1-1.6,0.1c-1,0-2.1,0-3.1-0.1c-1.2-0.1-2.5-0.1-3.7-0.2c-0.4,0-0.7,0-1.2-0.1
		C25.7,91.3,25.5,93.3,25.6,95.2z M16.5,113.7c-0.3,0.4-0.6,0.7-0.8,1c-0.6,0.8-1.2,1.7-1.9,2.5c-0.5,0.6-1,1.1-1.4,1.8
		c-1,1.6-0.9,3.4,0.2,4.8c1.1,1.2,2.8,1.6,4.2,0.8c1.1-0.7,2-1.5,2.8-2.5c0.8-1,1.5-2,2.2-3.1c0.1-0.2,0.3-0.4,0.4-0.7
		c-0.3-0.3-0.6-0.5-0.9-0.8c-0.1,0-0.1-0.1-0.3-0.2c-0.1,0.2-0.3,0.4-0.5,0.6c-0.3,0.2-0.5,0.4-0.8,0.5c-0.3,0.2-0.5,0.1-0.8-0.1
		c-0.5-0.4-0.6-1.1-0.1-1.8c0.1-0.2,0.3-0.4,0.4-0.6C18.2,115.2,17.4,114.5,16.5,113.7z M25.9,103.4c-1.5,1.4-7.6,8.9-8.6,10.4
		c0.6,0.7,1.3,1.3,2,1.8c3.2-3.3,5.8-7.1,8.6-10.6C27.3,104.5,26.6,103.9,25.9,103.4z M34.2,101.9c0.7-0.9,1.3-1.6,1.9-2.4
		c0.9-1.2,1.8-2.4,2.6-3.7c0.4-0.8,0.4-1.5,0.1-2.2c-0.4-1-1.4-1.4-2.3-1.2c-1,0.2-1.8,0.6-2.5,1.3c-1.1,1.1-2,2.2-3,3.3
		c-0.2,0.3-0.4,0.6-0.6,0.9C31.6,99.2,32.8,100.5,34.2,101.9z M31.4,107.2c0.7-0.8,1.4-1.5,2.1-2.3c-2-1.8-4-3.5-6-5.3
		c-0.8,0.9-1.5,1.8-2.3,2.7c1.1,0.7,1.9,1.8,3,2.4c0.2-0.2,0.3-0.3,0.4-0.4c0.1-0.1,0.3-0.2,0.4-0.3c0.4-0.2,0.9-0.2,1.3,0.1
		c0.4,0.4,0.4,0.7,0.1,1.2c-0.1,0.3-0.3,0.5-0.5,0.8C30.5,106.5,31,106.9,31.4,107.2z M35.6,101.4c0,0.7,0,1.3,0,1.9
		c0,2.8,0.1,5.5,0.1,8.3c0,1.6,0.1,3.1,0.1,4.7c0,0.1,0,0.1,0.1,0.2c0.4,0,0.9,0,1.3,0c0-5.1,0.1-10.1-0.3-15.2c-0.3,0-0.6,0-0.8,0
		C35.9,101.3,35.8,101.3,35.6,101.4z M18.9,117.2c0,0.6,0.3,0.9,0.6,0.7c0.3-0.1,0.5-0.3,0.7-0.5c0.5-0.6,0.9-1.2,1.4-1.8
		c1.3-1.5,2.6-3.1,3.8-4.6c1.2-1.5,2.4-3,3.6-4.4c0.3-0.4,0.6-0.9,0.9-1.3c0.2-0.3,0.2-0.6,0-0.8c-0.2-0.2-0.5-0.1-0.7,0
		c-0.1,0.1-0.2,0.1-0.3,0.2c-0.9,1.1-1.9,2.2-2.8,3.3c-1.3,1.6-2.5,3.2-3.8,4.7c-1,1.3-2.1,2.5-3.1,3.7
		C19.1,116.7,18.9,117.1,18.9,117.2z M28,117.9c0.1-0.5,0-0.9,0.4-1.2c0.1,0,0.1-0.2,0.1-0.3c-0.1-0.9-0.2-1.8-0.3-2.8
		c-0.1-0.7-0.3-1.3-1.1-1.4c-0.7,0.8-4.7,5.1-4.8,5.8c0.2,0,0.4,0.1,0.6,0.1c1,0,2-0.1,3-0.1C26.6,118,27.3,118,28,117.9z
		 M38.8,90.4c0,0.8,0,1.5,0,2.1c0,0.2,0.1,0.3,0.1,0.5c0.6,1.2,0.5,2.3-0.2,3.4c-0.7,1-1.4,2-2.1,3c-0.4,0.5-0.7,1-1.1,1.5
		c1.2,0.1,1.8,0,2.4-0.4c1-0.6,2-1.3,2.5-2.4c0.4-0.8,0.7-1.7,0.8-2.6c0-0.1,0.1-0.3,0-0.4C41,93.3,40.3,91.7,38.8,90.4z
		 M12.9,105.1c-3,3-3,7,0,9.8c0.4-0.4,0.8-0.9,1.2-1.3c-2-2.5-1.9-5-0.3-7.6C13.5,105.7,13.3,105.4,12.9,105.1z M17.4,90.3
		c-0.1,0-0.3,0-0.5-0.1c0-0.4,0.3-0.3,0.6-0.5c-1.2,0-2.2-0.2-3.4-0.1c0,0.4,0,0.8,0,1.2c0.1,1,0.1,2,0,3.1C14,94.4,14,95,14.3,95.5
		c1.1,0,2.2,0,3.4,0C17.6,93.7,17.5,92,17.4,90.3z M21.8,117.6c1.1-1.3,2.2-2.5,3.3-3.8c1.4-1.7,2.9-3.4,4.3-5
		c0.4-0.5,0.8-1,1.2-1.6c-0.4-0.2-0.7-0.4-1-0.7c-1.3,1.6-2.6,3.2-3.8,4.8c-1.3,1.6-2.6,3.1-3.8,4.7c-0.3,0.3-0.5,0.7-0.8,1.1
		C21.4,117.3,21.6,117.4,21.8,117.6z M28.2,99.6c1.6,1.5,3.2,2.9,4.8,4.4c0.5-0.6,0.9-1.1,1.4-1.6c-1.5-1.5-3.1-3-4.6-4.5
		C29.2,98.5,28.7,99,28.2,99.6z M25.6,99.7c-3-2.1-6.6-1.6-9.3,1.6c0.3,0.4,0.6,0.8,1,1c0.5-0.4,0.9-0.8,1.4-1.2
		c1.5-1.2,3.1-1.5,4.9-1.1c0.4,0.1,0.8,0.3,1.3,0.5C25.1,100.3,25.3,100,25.6,99.7z M19.2,95.3c0.8,0,1.4,0,2.1,0
		c0.1-1,0.1-5.3-0.1-5.8c-0.7,0-1.3,0-2,0C19.2,91.5,19.2,93.4,19.2,95.3z M30.5,116.7c0.2-2.2-0.1-4.7-1.1-5.4
		c-0.4,0.4-0.8,0.7-1.2,1.1c0.7,1.4,0.6,2.9,0.7,4.3C29.4,116.7,29.9,116.7,30.5,116.7z M14.5,106c0.9-1.1,1.7-2.1,2.6-3.2
		c-0.5-0.5-0.9-1-1.3-1.4c-1,1-2,2-2.9,3.1C13.4,104.9,13.9,105.4,14.5,106z M38.8,119.2c0,1.6,0,3.1,0,4.6c0.3-0.1,0.6-0.1,0.9-0.2
		c0-1.5,0-3,0-4.6C39.4,119.1,39.1,119.1,38.8,119.2z M14.9,113.3c-0.4,0.4-0.7,0.8-1,1.2c-0.3,0.4-0.7,0.8-1.1,1.3
		c0.2,0.3,0.4,0.5,0.7,0.8c0.7-0.9,1.4-1.7,2.1-2.6C15.3,113.7,15.1,113.5,14.9,113.3z M12.9,90.6c0.1,1.3-0.1,2.5,0.1,3.7
		c0.3,0,0.6,0,0.8,0c0-1.2-0.1-2.4-0.1-3.7C13.5,90.6,13.2,90.6,12.9,90.6z M22.7,90.1c-0.2,0.2-0.3,0.3-0.3,0.4c0,0.2,0,0.5,0,0.7
		c0,0.8,0.1,1.6-0.1,2.4c-0.3-0.2-0.2-0.5-0.2-0.7c0-0.8,0-1.6,0-2.4c0-0.2,0-0.4-0.3-0.4c0,1.4,0,2.8,0,4.1c0.3,0,0.6,0,0.9,0
		C22.7,93,22.7,91.7,22.7,90.1z M36.1,88.3c-0.9-0.2-1.7-0.2-2.5-0.1c0,0.3,0,0.7,0,1c0.9,0,1.7,0,2.6,0
		C36.1,88.9,36.1,88.6,36.1,88.3z M18,91c0,1.1,0,2,0,3.1c0.3,0,0.5,0,0.7,0c0-1,0-2.1,0-3.1C18.4,90.9,18.2,91,18,91z M28.5,118
		c0.9,0,1.7,0,2.6,0c0-0.3,0-0.6-0.1-0.9c-0.7,0-1.3,0-1.9,0C28.5,117.1,28.4,117.1,28.5,118z M37.7,117c-0.9,0-1.8,0-2.7,0
		c0.1,0.3,0.1,0.6,0.1,0.9c0.9,0,1.7,0.1,2.6-0.1C37.7,117.5,37.7,117.2,37.7,117z M27.8,88.1c0,0.4,0,0.7,0.1,1c0.8,0,1.6,0,2.4,0
		c-0.1-0.3-0.1-0.5-0.1-0.7C29.3,88.3,28.6,88.2,27.8,88.1z M24.3,94.5c0.3-1.5,0.1-2.9,0.2-4.2c-0.4-0.1-0.5,0-0.5,0.3
		c0,1.2-0.1,2.4-0.1,3.5C24,94.3,24.1,94.4,24.3,94.5z M29.4,95.7c0.2,0.6,0.3,1.1,0.8,1.5c0.4-0.5,0.7-0.9,1.1-1.5
		C30.6,95.7,30,95.7,29.4,95.7z M23.1,90.3c0,1.4,0,2.8,0,4.1c0.4-0.1,0.4-0.1,0.4-0.2c0-0.4,0.1-0.8,0.1-1.2c0-0.8,0-1.7,0-2.5
		c0-0.1,0-0.1-0.1-0.2C23.4,90.3,23.3,90.3,23.1,90.3z M28.9,110.1c-0.5,0.6-1,1.2-1.4,1.7c0.2,0.1,0.3,0.2,0.4,0.3
		c0.5-0.5,1-0.9,1.6-1.4C29.3,110.5,29.1,110.3,28.9,110.1z M26.2,99.5c-0.5,0.6-0.9,1.2-1.4,1.8c0.1,0.1,0.2,0.2,0.4,0.3
		c0.5-0.5,0.9-1,1.4-1.6C26.4,99.9,26.3,99.8,26.2,99.5z M25.1,90.4c-0.1,0-0.1,0-0.2,0c0,0.5,0.1,1,0.1,1.5c0,0,0.1,0,0.1,0
		C25.1,91.4,25.1,90.9,25.1,90.4z M25,93.4C25,93.4,25,93.4,25,93.4c-0.1,0.3-0.1,0.6-0.1,0.8c0,0,0.1,0,0.1,0
		C25,94,25,93.7,25,93.4z"/>
	<path d="M35,123.5c-0.4-0.1-0.8-0.2-1.2-0.2c-1.7,0-3.3,0-5,0c-0.6,0-1.2,0-1.8,0c-0.4,0-0.9-0.1-1.2,0.4c-0.1,0.1-0.3,0.2-0.4,0.1
		c-0.8-0.1-1.7-0.2-2.4-0.4c-1-0.3-1.4-1.1-1.1-2.1c0.2-0.8,0.6-1.4,1.5-1.6c0.8-0.2,1.5-0.3,2.3-0.3c0.1,0,0.2,0,0.2,0
		c0.4,0.6,1.1,0.4,1.6,0.4c1.3,0.1,2.6,0.1,3.9,0c0.9-0.1,1.8-0.1,2.7-0.3c0.9-0.3,1.8,0,2.5,0.4c0.8,0.4,0.9,1.2,0.8,2
		c-0.1,0.7-0.7,1.1-1.3,1.4C35.7,123.4,35.3,123.4,35,123.5z M26.1,123c2.6-0.1,5.3-0.2,7.9-0.3c-0.1-0.8-0.2-1.7-0.3-2.5
		c-0.1,0-0.2,0-0.3,0c-0.1,0-0.1,0-0.2,0.1c0,1.7,0,1.7-0.3,2c-0.1-0.2-0.2-0.4-0.2-0.5c0-0.5,0-0.9,0-1.4c0,0,0-0.1-0.1-0.2
		c-0.2,0-0.3,0-0.5,0c-0.1,0.7,0.2,1.4-0.3,2c-0.3-0.6-0.1-1.3-0.3-2c-0.3,0.1-0.3,0.1-0.3,0.3c0,0.5,0,0.9,0,1.4
		c0,0.1-0.1,0.2-0.1,0.3c-0.4-0.6-0.1-1.3-0.3-2c-0.2,0-0.3,0-0.4,0c0,0.4,0,0.7,0,1c0,0.3,0.2,0.7-0.3,1.1c0-0.7-0.1-1.4-0.1-2
		c-0.2,0-0.4,0-0.5,0c0,0.6,0,1.2,0,1.8c0,0.1-0.1,0.2-0.2,0.3c-0.1,0-0.1,0-0.2-0.1c0-0.7,0-1.4,0-2.1c-0.2,0-0.4,0-0.5,0.1
		c0,0.7,0.2,1.3-0.1,2.1c-0.4-0.8,0.1-1.6-0.5-2.3c-0.2,0.8,0.2,1.4-0.3,2.2c-0.1-0.3-0.1-0.5-0.1-0.7c0-0.4,0-0.7-0.1-1.1
		c0-0.3-0.2-0.3-0.5-0.2c0.1,0.7,0.2,1.4-0.1,2.1c-0.1-0.2-0.2-0.3-0.2-0.5c0-0.5,0-0.9,0-1.4c0-0.2,0-0.4-0.4-0.3
		c0,0.6,0,1.2-0.1,1.8c0,0.1-0.1,0.4-0.2,0.4C25.9,122.5,26.1,122.7,26.1,123z M25.5,119.8c-0.9-0.1-1.6,0-2.3,0.4
		c-0.8,0.3-1.2,1.5-0.9,2.2c0.1,0.2,0.3,0.4,0.5,0.5c0.9,0.4,1.8,0.5,2.7,0.4C25.5,122.1,25.5,121,25.5,119.8z M34.2,119.9
		c0.1,1.1,0.1,2.1,0.2,3.1c0.5,0,1,0,1.4,0c0.5-0.1,1.1-0.6,1.2-1c0.1-0.7-0.2-1.4-0.7-1.7C35.7,120,35,119.8,34.2,119.9z M26,120.1
		c-0.2,0.5,0.1,0.9,0.1,1.3c0.1-0.4,0.1-0.8,0.1-1.2C26.2,120.2,26.1,120.2,26,120.1z"/>
	<path d="M27.4,91.4c0.6,0,1,0.4,1.1,0.9c0,0.5-0.5,1-0.9,1c-0.6,0-1.2-0.5-1.1-1C26.4,91.7,26.7,91.4,27.4,91.4z M27.4,91.9
		c-0.4,0-0.7,0.2-0.7,0.5c0,0.2,0.4,0.5,0.8,0.5c0.3,0,0.5-0.2,0.5-0.5C28.1,92.1,27.8,91.9,27.4,91.9z"/>
	<path d="M30.3,93.3c-0.6,0-0.9-0.3-0.9-0.9c0-0.6,0.4-1.1,0.9-1.1c0.5,0,1,0.5,1,1.1C31.2,93,30.9,93.3,30.3,93.3z M30.2,91.8
		c-0.3,0-0.4,0.2-0.4,0.6c0,0.4,0.2,0.5,0.6,0.5c0.3,0,0.5-0.2,0.4-0.5C30.8,92,30.5,91.7,30.2,91.8z"/>
	<path d="M26.4,94.7c-0.2,0.1-0.3,0.3-0.4,0.2c-0.1,0-0.2-0.2-0.2-0.3c0-0.1,0.1-0.2,0.2-0.3C26.1,94.5,26.3,94.5,26.4,94.7z"/>
	<path d="M37.6,89.8c0.1,0.2,0.3,0.3,0.3,0.4c0,0.1-0.1,0.2-0.2,0.4c-0.1-0.1-0.3-0.2-0.3-0.3C37.4,90.2,37.5,90,37.6,89.8z"/>
	<path d="M26.5,90c-0.2,0.1-0.3,0.2-0.4,0.2c-0.1,0-0.1-0.2-0.2-0.3c0.1-0.1,0.2-0.2,0.3-0.2C26.3,89.7,26.4,89.9,26.5,90z"/>
	<path d="M18.2,120.6c0.1,2.1-2.2,3.6-4.2,2.5c-1-0.5-1.6-2.2-1.1-3.2c0.1-0.2,0.3-0.5,0.4-0.7c0.5-1,1.4-1.3,2.5-1.3
		C17.2,117.9,18.3,119.4,18.2,120.6z M15.8,118.4c-1.6,0.1-2.5,0.9-2.6,2.3c-0.1,1.1,0.7,2.2,2.2,2.2c1.2,0,2.3-0.8,2.3-2.4
		C17.7,119.4,16.8,118.4,15.8,118.4z"/>
	<path d="M16.8,114.7c-0.2,0.1-0.3,0.2-0.4,0.2c-0.1,0-0.1-0.1-0.2-0.2c0.1-0.1,0.2-0.2,0.3-0.2C16.6,114.4,16.7,114.6,16.8,114.7z"
		/>
	<path d="M21,118.8c-0.1-0.1-0.2-0.2-0.3-0.3c0,0,0.2-0.2,0.2-0.2c0.1,0,0.2,0.1,0.3,0.2C21.3,118.6,21.1,118.7,21,118.8z"/>
	<path d="M38.4,95.1c0,1.2-1,2.3-2.1,2.2c-1.3,0-2.3-1.2-2.1-2.4c0.1-0.6,0.4-1.1,0.9-1.4c0.4-0.3,0.9-0.6,1.5-0.6
		c0.6-0.1,1,0.2,1.3,0.6C38.2,93.9,38.4,94.4,38.4,95.1z M38,94.9c0-1-0.7-1.6-1.7-1.6c-0.8,0-1.8,0.9-1.8,1.7
		c0,0.9,0.9,1.8,1.8,1.8C37.2,96.8,38,95.9,38,94.9z"/>
	<path d="M16.9,92.1c0,0.6-0.3,1.1-0.9,1.1c-0.6,0-1-0.4-1-0.9c0-0.6,0.5-1.1,1.1-1.1C16.7,91.3,16.9,91.6,16.9,92.1z M16.5,92.1
		c0-0.3-0.2-0.5-0.5-0.5c-0.3,0-0.7,0.4-0.7,0.7c0,0.2,0.3,0.5,0.6,0.5C16.3,92.8,16.5,92.5,16.5,92.1z"/>
	<path d="M14.9,94.9c-0.1,0.1-0.2,0.2-0.3,0.2c-0.1,0-0.2-0.1-0.2-0.2c0.1-0.1,0.2-0.2,0.3-0.2C14.7,94.7,14.8,94.8,14.9,94.9z"/>
	<path d="M16.8,95.1c0-0.3,0.1-0.4,0.3-0.3c0.1,0,0.2,0.2,0.1,0.2C17.2,95.2,17,95.2,16.8,95.1z"/>
	<path d="M14.6,90.3c-0.1-0.1-0.2-0.2-0.2-0.2c0-0.1,0.1-0.1,0.2-0.2c0,0.1,0.1,0.1,0.1,0.2C14.8,90.2,14.7,90.2,14.6,90.3z"/>
	<path d="M16.6,120.7c0,0.6-0.4,1.1-1,1.1c-0.7,0-1.1-0.4-1.1-1.1c0-0.6,0.5-1.2,1-1.2C16,119.4,16.6,120,16.6,120.7z M14.9,120.7
		c0,0.4,0.2,0.6,0.6,0.6c0.4,0,0.6-0.3,0.6-0.7c0-0.4-0.3-0.6-0.7-0.6C15.1,120,14.9,120.3,14.9,120.7z"/>
	<path d="M37.2,95c0,0.6-0.3,1-0.9,1c-0.5,0-0.9-0.3-0.9-0.9c0-0.7,0.3-1,1-1C37,94.1,37.2,94.4,37.2,95z M36.5,94.5
		c-0.3,0-0.6,0.2-0.6,0.5c0,0.3,0.2,0.6,0.6,0.6c0.3,0,0.5-0.2,0.5-0.5C37,94.7,36.8,94.5,36.5,94.5z"/>
</g>
<g>
	<path d="M71.6,121.5c-0.1,0.7-0.1,0.7-0.8,0.9c0,0.4-0.3,0.7-0.8,0.9c-0.1,0-0.2,0.1-0.2,0.1c-0.3,0.5-0.8,0.5-1.2,0.5
		c-0.1,0.2-0.2,0.5-0.4,0.6c-0.5,0.3-1.1,0.5-1.7,0.6c-0.2,0-0.4,0-0.6,0.2c-0.3,0.3-0.7,0.4-1.1,0.1c-0.3,0.5-0.7,0.7-1.2,0.5
		c0,0.2,0,0.5-0.4,0.5c-2.4,0-4.8,0-7.2,0.1c0,0-0.1,0-0.2-0.1c0-0.3-0.1-0.6-0.1-1c-0.2,0-0.3-0.1-0.5-0.1
		c-0.7-0.2-1.4-0.3-2.1-0.6c-1.9-0.7-3.6-1.7-5-3c-1.5-1.4-2.8-3-3.7-4.9c-1.5-3.3-2.1-6.7-1.9-10.3c0.1-2.2,0.6-4.4,1.6-6.4
		c-0.1-0.2-0.2-0.4-0.3-0.6c0.8-1.1,1.7-2.3,2.5-3.4c0.2-0.3,0.6-0.5,0.8-0.9c0-0.1,0.4-0.2,0.6-0.2c0.2-0.8,0.2-0.8,1-0.9
		c0.1-0.8,0.1-0.8,0.7-0.8c0.3-0.3,0.6-0.5,0.8-0.7c0.1-0.1,0.2-0.2,0.2-0.3c0.3-0.4,0.3-0.4,0.9-0.3c0.2-0.2,0.4-0.5,0.6-0.5
		c0.5,0,0.7-0.9,1.3-0.3c0.3-0.3,0.5-0.7,1-0.5c0.1,0,0.2-0.1,0.2-0.1c0.1-0.1,0.2-0.2,0.3-0.2c0.5,0.3,0.9-0.3,1.4-0.2
		c0.1,0,0.2,0,0.2-0.1c0.2-0.4,0.6-0.3,1-0.3c1.6,0,3.2-0.1,4.8-0.1c0.3,0,0.6-0.1,0.7,0.3c0,0.1,0.1,0.1,0.2,0.1
		c0.6,0.1,1.2,0.3,1.7,0.4c0.4,0.1,0.8,0.2,1.1,0.4c1.2,0.6,2.4,1.2,3.6,1.8c0.5,0.2,0.9,0.6,1.3,0.9c1.9,1.8,3.5,3.8,4.4,6.2
		c0.7,1.7,1.1,3.5,1.2,5.3c0,0.3,0,0.5,0,0.8c0.6,0.1,0.7,0.1,0.7,0.8c0,1.5,0,3,0,4.4c0,0.2-0.1,0.3-0.3,0.6c0,0.2,0.2,0.5,0.1,0.8
		c0,0.2-0.3,0.5-0.5,0.7c0.1,0.1,0.3,0.4,0.2,0.6c0,0.2-0.2,0.4-0.3,0.6c-0.1,0.3-0.2,0.5-0.3,0.8c-0.1,0.3-0.4,0.5-0.4,0.9
		c0,0.2-0.4,0.4-0.6,0.7c0.2,0.3,0.1,0.6-0.2,0.9c-0.1,0.1-0.2,0.3-0.2,0.3c0.1,0.6-0.2,0.8-0.7,0.9c0.1,0.5-0.1,0.8-0.4,1
		c-0.1,0-0.2,0.1-0.2,0.1c-0.1,0.6-0.6,0.8-0.9,1.2C72.3,121.3,72,121.5,71.6,121.5z M46.6,96.3c-0.2,0.2-0.3,0.3-0.5,0.5
		c-0.6,0.8-1.2,1.6-1.8,2.4c-0.1,0.1-0.1,0.2-0.1,0.3c1,0.6,1.9,1.3,2.9,1.9c0.5,0.3,0.9,0.6,1.4,0.8c0.2,0.1,0.4,0.1,0.7,0.1
		c0,0,0,0.1,0.1,0.2c0.1,0.1,0.2,0.1,0.3,0.1c0.6-1.1,1.3-2.2,1.7-3.5c-0.1-0.1-0.2-0.1-0.2-0.1c-1.2-0.9-2.4-1.7-3.6-2.6
		c-0.2-0.1-0.4-0.3-0.5-0.3C46.8,96.1,46.7,96.2,46.6,96.3L46.6,96.3z M56.7,117.9c0-0.8-0.1-1.6-0.1-2.4c0-1.3,0.5-2.3,1.4-3.2
		c0.6-0.7,2.3-0.9,3-0.4c1.2,0.7,1.5,1.8,1.7,3c0.1,0.8,0.1,1.6,0.1,2.4c0,0.5,0,0.9-0.6,1c0.1,0.6,0.7,0.2,1,0.7
		c0,0.2,0,0.4,0.1,0.7c0.1,0.4,0.3,0.6,0.7,0.5c0.4-0.1,0.8-0.2,1.2-0.4c0.5-0.2,0.9-0.4,1.5-0.7c0-0.3,0.1-0.5,0.6-0.5
		c0.1,0,1.2-1.2,1.3-1.3c0.3-0.4,0.3-0.8,0.5-1.3c0.3-0.5,0.8-0.7,0.9-1.3c0.1-0.3,0.2-0.5,0.3-0.8c0.1-0.3,0.3-0.6,0.4-0.9
		c0.1-0.2,0.1-0.5,0.2-0.8c-0.3-0.3-0.3-0.8,0.1-1.1c-0.2-0.5-0.6-0.4-0.9-0.3c-0.5,0.2-1,0.1-1.2-0.4c-0.6,0-1.2-0.1-1.7,0.2
		c-0.3,0.2-0.8,0.2-1.1-0.1c-0.5-0.4-1-0.3-1.5-0.3c-0.2,0-0.5,0.1-0.7,0.1c-1.3,0-2.7,0.1-4,0.1c-0.3,0-0.5,0-0.8,0
		c-1.6-0.1-3.2-0.1-4.8-0.2c-0.4,0-0.7,0.1-1,0.5c-0.4,0.5-1,0.5-1.4,0c-0.3-0.4-0.6-0.5-1.1-0.4c-0.1,0.1-0.1,0.3-0.2,0.5
		c-0.6,0-1.2,0.1-1.9,0.1c1.1,4,3.3,7.1,6.9,9c0.3-0.1,0.6-0.2,0.9-0.3c0-0.2,0-0.4,0-0.7c0.3-0.1,0.5-0.1,0.8-0.2
		C57.3,118.1,57.3,118.1,56.7,117.9z M65.7,107.2c0.3-2,0-3.9-1-5.7c-1.5-2.7-5-3.6-7.4-2.4c-1.3,0.7-2.5,1.5-3.2,2.8
		c-0.9,1.6-1.1,3.4-0.8,5.2C57.5,107,61.6,107.4,65.7,107.2z M51.4,107.1c0-0.3,0-0.5,0-0.8c0-1.9,0.3-3.8,1.2-5.6
		c0.7-1.3,1.7-2.5,3-3.1c1.8-0.9,3.8-1.4,5.9-0.9c2.1,0.5,3.8,1.7,4.8,3.6c0.9,1.7,1.5,3.5,1.4,5.5c0,0.5,0.1,1,0.2,1.5
		c0.4,0,0.6,0,0.9-0.1c0-0.2,0-0.3,0.1-0.3c0.1-0.6,0.1-0.6,0.8-0.6c0.2,0,0.5,0,0.7,0.1c0.2-0.5,0.2-1,0-1.5
		c-0.1-0.3-0.1-0.5-0.2-0.8c-0.4-1.8-1-3.5-2-5.1c-1-1.5-2.2-2.8-3.8-3.5c-0.6-0.3-1.2-0.7-1.9-0.2c-0.1,0.1-0.3,0-0.4,0.1
		c-0.2,0.1-0.4,0.2-0.5,0.2c-0.2,0.1-0.3,0.1-0.5,0.1c-1,0-1.9,0-2.9,0c-0.2,0-0.4,0-0.5-0.1c-0.2-0.2-0.4-0.2-0.7-0.1
		c-0.8,0.3-1.6,0.4-2.4,0.6c-1,0.3-1.8,1-2.6,1.6c-0.3,0.2-0.2,0.4-0.3,0.7c-0.1,0.4-0.1,0.8-0.3,1.1c-0.4,0.9-1,1.7-1.4,2.6
		c-0.3,0.5-0.6,0.9-1.3,0.7c-0.2,1.1-0.5,2.1-0.7,3.1c0,0.2,0,0.4,0,0.6c0.3,0,0.5,0,0.8,0c0.3,0,0.7,0,1,0c0.2,0,0.4,0.1,0.4,0.2
		C50.6,107.3,51,107.1,51.4,107.1z M46.2,101.2c-0.2,0.6-0.3,1-0.4,1.5c-1,3-0.8,6.1,0,9.1c0.7,2.7,2.1,5,4,7.1
		c1.4,1.6,3.2,2.7,5.2,3.3c0.2,0.1,0.4,0.1,0.6,0.1c0-0.7,0-1.3,0-2c-6-3-9.6-10.9-7-17.7C47.8,102.2,47,101.7,46.2,101.2z
		 M44.5,100.1c-0.1,0.2-0.2,0.3-0.2,0.5c-0.8,2.2-1.2,4.4-1.3,6.7c-0.1,1.5,0.2,3,0.4,4.5c0.6,3.3,1.9,6.3,4.3,8.8
		c1.8,1.8,4,3.1,6.4,4c0.5,0.2,1.1,0.2,1.7,0.4c-0.1-0.8-0.1-1.4-0.1-2.1c-2.7-0.7-4.8-2-6.6-4.1c-1.7-2-3-4.2-3.7-6.7
		c-0.5-1.4-0.6-2.9-0.6-4.4c-0.1-1.3-0.1-2.5,0.3-3.8c0.2-0.9,0.5-1.9,0.8-2.9C45.4,100.6,45,100.4,44.5,100.1z M62.8,92.4
		c0.6,0.2,1.2,0.3,1.7,0.5c1.2,0.3,2.3,0.9,3.4,1.5c0.9,0.6,1.7,1.4,2.4,2.3c1.6,2.1,2.7,4.4,3.1,7c0.1,0.6,0.2,1.3,0.3,1.9
		c0.7,0.1,1.4,0.1,2.1,0.1c0.1-2.6-0.6-4.9-1.7-7.1c-1.3-2.7-3.2-5-5.9-6.4c-1.7-0.9-3.4-1.7-5.4-2.1C62.8,91,62.8,91.7,62.8,92.4z
		 M51.8,107.1c0,0,0.1,0,0.1,0c0,0.6,0,1.2,0,1.9c0,0.3,0,0.7,0.1,1c0,0.3,0.2,0.5,0.5,0.5c0.3,0.1,0.5-0.1,0.5-0.4
		c0.1-0.4,0.1-0.7,0.1-1.1c-0.1-1.3-0.3-2.6-0.2-4c0.2-3.1,1.7-5.2,4.5-6.4c0.4-0.2,0.9-0.3,1.4-0.4c0.5-0.1,1.1-0.1,1.6,0
		c1,0.1,2,0.3,2.8,0.9c1.3,1,2.1,2.3,2.6,3.9c0.4,1.4,0.5,2.8,0.4,4.2c-0.1,0.7-0.1,1.5-0.1,2.2c0,0.5,0.3,0.8,0.9,0.6
		c0.4-0.1,0.6-0.5,0.6-1c0-1-0.2-2.1-0.1-3.1c0-1.9-0.4-3.6-1.2-5.2c-0.7-1.4-1.8-2.5-3.3-3.1c-1.1-0.5-2.2-0.7-3.4-0.7
		c-1.6,0.1-3.1,0.6-4.4,1.5c-1.6,1.2-2.5,2.9-2.9,4.8C51.9,104.5,51.9,105.8,51.8,107.1z M73.1,105.7c0-0.3,0-0.5-0.1-0.7
		c-0.2-2.8-1.2-5.3-2.8-7.5c-0.5-0.7-1.1-1.4-1.8-2c-1.5-1.3-3.3-2-5.2-2.5c-0.1,0-0.3,0-0.4,0c0,0.6,0,1.1,0,1.7
		c1.1-0.1,1.9,0.6,2.8,1.1c0.7,0.4,1.3,0.9,1.8,1.5c1.4,1.6,2.5,3.4,3,5.5c0.1,0.4,0.2,0.8,0.3,1.2c0.1,0.6,0.3,1.1,0.4,1.7
		C71.8,105.7,72.4,105.7,73.1,105.7z M65.8,107.8c-0.2,0-0.3,0-0.4,0c-2.5,0-5.1-0.1-7.6-0.1c-0.9,0-1.8,0-2.7-0.1
		c-0.6-0.1-1.1,0.1-1.7,0.1c0.1,0.7,0.2,1.4,0.2,2.1c4,0.1,8,0.4,12.1,0C65.7,109.1,65.8,108.4,65.8,107.8z M56.9,117.7
		c1.8,0,3.5,0,5.3,0c0-1.6,0.2-3.1-0.6-4.5c-0.4-0.7-1-1.1-1.9-1.1c-1.1-0.1-1.8,0.5-2.4,1.4C56.6,114.8,56.9,116.2,56.9,117.7z
		 M56,120c0.1,2,0.1,4,0.2,6c2.4-0.1,4.7-0.1,7.1-0.2c-0.1-1.9-0.2-3.8-0.3-5.7C60.7,120,58.5,120,56,120z M71.1,110.7
		c1.8,0.1,3.6,0.2,5.5,0.4c-0.1-1.6,0.2-3.2,0.1-4.7c-2,0-3.9-0.1-5.8-0.1C71,107.7,71,109.2,71.1,110.7z M61.3,95.3
		c0-1.4-0.1-2.7-0.1-4c0,0-0.1-0.1-0.2-0.1c-0.2,0.1,0.1,0.6-0.3,0.5c-0.1,0-0.2-0.3-0.4-0.5c-0.7,0-1.5,0-2.4,0
		c0,1.4-0.1,2.8,0.2,4.2C59.1,95.4,60.1,95.3,61.3,95.3z M62.3,89.9c-1.9,0-3.8,0-5.7,0c0.2,1.8,0.3,3.5,0.5,5.2c0.2,0,0.4,0,0.7,0
		c0-0.4,0-0.8,0-1.2c0-0.9-0.1-1.7-0.1-2.6c0-0.2,0.1-0.4,0.1-0.7c1.3,0.1,2.5,0.1,3.8,0.2c0,1.4,0.1,2.8,0.1,4.3
		c0.3-0.1,0.5-0.2,0.8-0.3C62.4,93.2,62.3,91.6,62.3,89.9z M50.1,110.4c0-1.2,0-2.3,0-3.4c-0.7,0-1.3,0-2,0
		c-0.1,1.3,0.1,2.4,0.4,3.5C49.1,110.5,49.6,110.4,50.1,110.4z M72.5,111.3c-0.4,0-0.7,0-1,0.1c-0.2,0-0.4,0.1-0.4,0.4
		c0.1,0.3,0.2,0.4,0.5,0.4c0.8,0,1.5,0.1,2.3,0.2c0.6,0.1,1.2,0.1,1.8,0.2c0.1,0,0.3,0,0.4,0c0.2-0.1,0.4-0.2,0.4-0.3
		c0-0.2-0.2-0.4-0.3-0.5c-0.2-0.1-0.5-0.2-0.8-0.2c-0.4-0.1-0.8-0.1-1.2-0.1C73.6,111.4,73,111.3,72.5,111.3z M69.4,110.3
		c0.5,0,0.8-0.1,1.2-0.1c0-1.2,0.1-2.3-0.1-3.5c-0.4,0-0.8,0-1.2,0C69.3,107.9,69.4,109.1,69.4,110.3z M63.6,120.4
		c-0.1,0.3-0.1,0.5-0.1,0.7c0,0.9,0,1.7,0,2.6c-0.1,0.7,0.1,1.3,0.5,1.8c0.4,0,0.5-0.3,0.4-0.6c-0.1-1.1-0.1-2.2-0.3-3.3
		C64.2,121.2,64.1,120.8,63.6,120.4z M62.7,119c-0.1,0-0.2,0-0.2,0c-1.4,0-2.8-0.1-4.2-0.1c-0.4,0-0.8,0.1-1.1,0.1
		c-0.3,0-0.3,0.2-0.2,0.5c1.9,0.1,3.8,0.2,5.8,0.2C62.7,119.5,62.7,119.3,62.7,119z M70.1,115c0,0.1,0,0.1,0,0.2
		c0.7,0.5,1.5,0.7,2.2,1.1c0.7,0.4,1.4,0.8,2.2,1.3c0.1-0.2,0.3-0.3,0.4-0.5c-0.1-0.1-0.1-0.2-0.2-0.3c-1.2-0.8-2.4-1.5-3.8-1.8
		C70.6,114.8,70.4,115,70.1,115z M67.1,118.9c-0.1,0.6-0.1,0.7,0.3,1.1c0.6,0.7,1.1,1.4,1.7,2.1c0.1,0.2,0.3,0.3,0.4,0.5
		c0.3,0.3,0.6,0.4,0.8,0.2c0.3-0.3,0-0.5-0.1-0.7c-0.8-0.9-1.5-1.7-2.3-2.6C67.6,119.2,67.4,119.1,67.1,118.9z M69.6,115.8
		c0.1,0.1,0.2,0.3,0.3,0.3c1.1,0.7,2.3,1.5,3.4,2.2c0.4,0.3,0.7,0.2,1.1-0.2C73.7,117.3,70.5,115.7,69.6,115.8z M66.3,119.5
		c0,0-0.1,0.1-0.1,0.1c0,0.1,0,0.1,0,0.2c0.7,1.1,1.4,2.2,2,3.2c0.3,0.5,0.6,0.5,1.2,0.2c0-0.1,0-0.2-0.1-0.3
		c-0.8-1.1-1.7-2.1-2.5-3.2C66.7,119.7,66.5,119.6,66.3,119.5z M76.2,113.6c-1.3-0.8-4.5-1.2-5.3-0.6c0.2,0.1,0.3,0.1,0.4,0.1
		c1.4,0.3,2.8,0.6,4.3,0.9C75.9,114,76.1,113.9,76.2,113.6z M51.8,97.5c0.1,0,0.1-0.1,0.2-0.1c-0.5-1.3-1.4-2.3-2.2-3.4
		c-0.2-0.3-0.4-0.5-0.8-0.5c-0.2,0.4,0,0.8,0.2,1c0.8,0.9,1.5,1.9,2.3,2.8C51.6,97.4,51.7,97.4,51.8,97.5z M70.5,114.3
		c1.3,0.4,2.5,1,3.7,1.7c0.6,0.4,0.6,0.3,1.1-0.2C74.4,114.9,71.4,114,70.5,114.3z M68,124.1c-0.1-1-1.8-3.7-2.6-4.1
		c0.1,0.2,0.2,0.4,0.2,0.6c0.5,1.1,1.1,2.2,1.6,3.3C67.4,124.3,67.5,124.3,68,124.1z M51.3,98.6c0-0.1,0.1-0.1,0.1-0.2
		c-0.2-0.2-0.5-0.5-0.7-0.7c-0.9-0.8-1.9-1.5-2.8-2.3c-0.1-0.1-0.2-0.2-0.3-0.2c-0.1,0-0.2,0-0.3,0c-0.1,0.1-0.1,0.2-0.1,0.3
		c0.1,0.2,0.2,0.4,0.4,0.5c1,0.7,2,1.5,3,2.2C50.8,98.4,51,98.5,51.3,98.6z M52.6,97.1c-0.1-1.1-1.8-3.8-2.6-4.2
		c-0.3,0.4-0.3,0.4,0,0.9c0.7,1,1.5,2.1,2.2,3.1C52.3,96.9,52.4,97,52.6,97.1z M71.2,121.8c-0.8-1.2-1.8-2.2-2.8-3.1
		c-0.2-0.1-0.4-0.2-0.6-0.2c0,0.1-0.1,0.1-0.1,0.2c0.1,0.1,0.2,0.3,0.3,0.4c0.8,0.9,1.7,1.8,2.5,2.8C70.7,122,70.9,122,71.2,121.8z
		 M69,117.2c0,0.1-0.1,0.1-0.1,0.2c0.1,0.2,0.3,0.3,0.4,0.5c0.7,0.6,1.5,1.1,2.2,1.7c0.2,0.2,0.5,0.4,0.7,0.6c0.2,0.2,0.4,0.2,0.6,0
		c0-0.1,0-0.1,0-0.2c-0.9-1-2-1.8-3.1-2.6C69.5,117.3,69.2,117.3,69,117.2z M51.1,97.7c0,0,0.1-0.1,0.1-0.1c-1-1.1-1.7-2.5-3-3.3
		c-0.4,0.5-0.4,0.8,0,1.1C49.2,96.2,50.2,96.9,51.1,97.7z M61.8,118c-1.1,0-2.2,0-3.3,0c-0.2,0-0.4,0-0.6,0c-0.4,0-0.4,0.2-0.3,0.6
		c1.4,0.1,2.8,0.2,4.2,0.1C61.9,118.4,61.8,118.3,61.8,118z M53.2,96.5c0,0,0.1-0.1,0.1-0.1c0-0.1,0-0.2-0.1-0.3
		c-0.4-0.8-0.8-1.6-1.2-2.4c-0.2-0.4-0.4-0.7-0.7-1.1c-0.1-0.2-0.4-0.3-0.6-0.4c0,0-0.1,0.1-0.1,0.1c0,0.2,0,0.5,0.1,0.6
		c0.8,1.1,1.6,2.2,2.2,3.4C52.9,96.4,53.1,96.4,53.2,96.5z M51.8,91.7c-0.3,0.2-0.2,0.5-0.1,0.7c0.6,1.1,1.2,2.2,1.8,3.2
		c0.1,0.1,0.2,0.3,0.4,0.5C53.9,95.1,52.6,92.3,51.8,91.7z M72.1,120.9c-0.4-0.9-3-2.8-3.8-2.9c0,0,0,0.1,0,0.1
		c0.9,0.9,1.7,1.7,2.6,2.6C71.3,121,71.7,121.2,72.1,120.9z M56.4,95.1c0,0,0.1,0,0.1,0c0-0.1,0.1-0.1,0.1-0.2
		c-0.1-1.1-0.1-2.3-0.2-3.4c0-0.3-0.2-0.6-0.3-0.9c-0.1-0.2-0.2-0.4-0.4-0.2c-0.1,0.1-0.2,0.3-0.2,0.5c0,0.1,0,0.1,0.1,0.2
		c0.2,0.8,0.4,1.5,0.5,2.3C56.2,93.9,56.3,94.5,56.4,95.1z M52.7,91.2c-0.3,0.3-0.3,0.5-0.1,0.7c0.2,0.2,0.3,0.5,0.4,0.7
		c0.4,0.9,0.8,1.7,1.2,2.6c0.1,0.2,0.1,0.5,0.6,0.5c0-0.2,0-0.4-0.1-0.5c-0.4-0.9-0.7-1.9-1.1-2.8C53.4,91.9,53.1,91.5,52.7,91.2z
		 M73.6,119.2c-0.8-0.9-3.7-2.7-4.4-2.7c0.1,0.1,0.2,0.3,0.3,0.3c0.3,0.2,0.6,0.3,0.8,0.4c0.8,0.6,1.6,1.2,2.3,1.9
		C73,119.5,73.1,119.5,73.6,119.2z M55.3,95.5c0,0,0.1-0.1,0.1-0.1c0-0.2-0.1-0.4-0.1-0.6c-0.3-0.8-0.6-1.7-0.9-2.5
		c-0.1-0.4-0.3-0.8-0.4-1.2c0-0.1-0.2-0.2-0.4-0.2c-0.1,0.1-0.2,0.3-0.2,0.4c0,0.1,0.1,0.2,0.1,0.3c0.2,0.5,0.4,0.9,0.6,1.4
		c0.3,0.7,0.6,1.4,0.8,2.1C55.1,95.2,55.2,95.3,55.3,95.5z M64.8,121.4c-0.1,0-0.1,0-0.2,0c0.1,1,0.1,1.9,0.2,2.9
		c0,0.2,0.2,0.4,0.3,0.6c0.1,0.1,0.3,0.1,0.4,0.1c0.1,0,0.2-0.2,0.2-0.3c0-0.2,0-0.4-0.1-0.6C65.4,123.3,65.1,122.3,64.8,121.4z
		 M55.9,95.2c0.1-0.7-0.5-3.6-0.9-4.6c-0.1-0.1-0.1-0.3-0.2-0.4c-0.4,0.7-0.4,0.7-0.3,1.1c0.3,0.8,0.5,1.7,0.8,2.5
		C55.5,94.3,55.7,94.7,55.9,95.2z M66.8,124.6c0.1-0.6,0.1-0.6-0.4-1.5c-0.2-0.5-0.5-0.9-0.7-1.4c-0.4-1-0.4-1-0.9-1.2
		c0.5,1.4,1,2.8,1.4,4.2C66.4,124.6,66.6,124.6,66.8,124.6z M71,113.5c0,0.1,0,0.1-0.1,0.2c0.2,0.1,0.4,0.1,0.7,0.2
		c1,0.2,2.1,0.5,3,1c0.1,0.1,0.2,0.1,0.3,0.2c0.4,0.2,0.5,0.1,0.7-0.5C74.2,114,72.6,113.7,71,113.5z M50.5,107.5
		c0.1,0.8,0.1,1.6,0.2,2.3c0.3,0,0.5,0,0.7,0c0-0.8,0-1.5,0-2.2C51.1,107.6,50.9,107.5,50.5,107.5z M68.9,107.7
		c-0.3,0-0.6,0-0.9-0.1c0,0.8,0,1.5,0,2.2c0.3,0,0.6,0,0.9,0C68.9,109.1,68.9,108.5,68.9,107.7z"/>
	<path d="M58.4,117.1c-0.1,0.1-0.2,0.1-0.2,0.1c-0.9,0.2-1,0.1-1-0.8c-0.1-1,0.1-2,0.5-2.9c0.3-0.6,0.7-1,1.3-1.2
		c0.2,0.2,0.2,0.4,0.1,0.5c-0.8,1.1-0.8,2.4-0.7,3.7C58.5,116.7,58.4,116.9,58.4,117.1z M58,116.8c0-1.3-0.2-2.6,0.5-3.8
		c-0.5,0.4-0.7,1-0.8,1.6c-0.1,0.6-0.1,1.3-0.1,2C57.6,116.8,57.7,116.9,58,116.8z"/>
	<path d="M57.1,121.1c1.8,0,3.4,0,5,0c0.1,1.1,0.2,2.2,0.2,3.3c0,0.6-0.1,0.7-0.7,0.7c-1.3,0-2.7,0-4,0c-0.6,0-0.8-0.1-0.7-0.7
		C56.9,123.4,57,122.3,57.1,121.1z M57.2,124.7c0.9,0,1.6,0,2.4,0c0.7,0,1.5,0,2.3,0c-0.1-1.1-0.2-2.1-0.2-3.1c-1.4,0-2.8,0-4.2,0
		C57.4,122.7,57.3,123.6,57.2,124.7z"/>
	<path d="M75,108.8c0,0.6-0.6,1.2-1.3,1.2c-0.7,0-1.4-0.7-1.4-1.3c0-0.8,0.7-1.5,1.4-1.5C74.5,107.2,75.1,107.9,75,108.8z
		 M74.6,108.8c0-0.7-0.4-1.2-1-1.2c-0.5,0-0.9,0.5-0.9,1c0,0.4,0.6,1,1.1,1C74.2,109.6,74.6,109.2,74.6,108.8z"/>
	<path d="M76.1,107c-0.2,0.1-0.3,0.2-0.3,0.2c-0.1,0-0.1-0.1-0.2-0.2c0.1-0.1,0.2-0.2,0.3-0.2C75.9,106.7,76,106.8,76.1,107z"/>
	<path d="M72,106.8c-0.2,0.1-0.3,0.2-0.4,0.2c-0.1,0-0.2-0.1-0.2-0.2c0.1-0.1,0.2-0.2,0.3-0.2C71.8,106.6,71.9,106.7,72,106.8z"/>
	<path d="M76.2,110.2c-0.1,0.1-0.2,0.2-0.3,0.2c-0.1,0-0.2-0.1-0.3-0.2c0.1-0.1,0.1-0.2,0.2-0.2C76,110,76.1,110.1,76.2,110.2z"/>
	<path d="M71.7,110.3c-0.1-0.1-0.2-0.2-0.2-0.3c0-0.1,0.1-0.2,0.2-0.2c0.1,0,0.2,0.1,0.2,0.2C71.9,110.1,71.8,110.2,71.7,110.3z"/>
	<path d="M58.7,91.5c-0.1,0.1-0.2,0.2-0.3,0.2c0,0-0.1-0.1-0.1-0.2c0-0.1,0.1-0.2,0.2-0.2C58.5,91.4,58.6,91.5,58.7,91.5z"/>
	<path d="M62.2,90.3c-0.1,0.1-0.2,0.2-0.3,0.2c0,0-0.2-0.1-0.2-0.1c0-0.1,0.1-0.2,0.2-0.2C62,90.2,62.1,90.3,62.2,90.3z"/>
	<path d="M46.6,96.3c0.2,0,0.4,0,0.5,0.2c0.1,0.2,0.2,0.4,0.4,0.5c0.9,0.6,1.8,1.2,2.7,1.8c0.4,0.3,0.5,0.4,0.3,0.9
		c-0.1,0.3-0.3,0.5-0.5,0.8c-0.2,0.4-0.5,0.8-0.8,1.3c-0.7-0.3-1.4-0.8-2-1.2c-0.7-0.4-1.4-0.8-2-1.2c0-0.6,0.2-0.9,0.5-1.2
		c0.4-0.3,0.6-0.8,0.9-1.1C46.7,96.8,46.7,96.5,46.6,96.3C46.6,96.3,46.6,96.3,46.6,96.3z M48.7,101.1L48.7,101.1
		c0.1,0.1,0.2,0.1,0.3,0.2c0.4-0.7,0.8-1.3,1.1-1.9C49,98.6,48,97.9,47,97.2c-0.3,0.3-0.5,0.7-0.8,1c-0.3,0.3-0.5,0.6-0.9,0.9
		C46.5,99.8,47.6,100.4,48.7,101.1z"/>
	<path d="M60.6,123.1c0,0.5-0.5,1-1.2,1c-0.6,0-1.1-0.6-1.1-1.2c0-0.6,0.5-0.9,1.1-0.9C60.1,122,60.7,122.5,60.6,123.1z M59.5,122.4
		c-0.4,0-0.6,0.2-0.6,0.6c0,0.4,0.4,0.7,0.7,0.6c0.3,0,0.7-0.4,0.7-0.6C60.3,122.8,59.8,122.4,59.5,122.4z"/>
	<path d="M61.7,124.2c-0.1,0.1-0.2,0.3-0.3,0.3c-0.1,0-0.2-0.2-0.2-0.3c0-0.1,0.1-0.2,0.3-0.3C61.4,124,61.5,124.1,61.7,124.2z"/>
	<path d="M58.2,122.2c-0.2,0.1-0.3,0.2-0.3,0.2c-0.1,0-0.2-0.2-0.3-0.3c0,0,0.2-0.2,0.2-0.2C57.9,121.9,58,122,58.2,122.2z"/>
	<path d="M61.3,122.4c-0.1-0.1-0.2-0.2-0.2-0.3c0-0.1,0.1-0.2,0.2-0.3c0.1,0.1,0.2,0.1,0.2,0.2C61.5,122.2,61.4,122.3,61.3,122.4z"
		/>
	<path d="M57.8,124.5c-0.1-0.1-0.2-0.2-0.2-0.3c0,0,0.1-0.2,0.2-0.2c0.1,0,0.2,0.1,0.2,0.2C57.9,124.3,57.8,124.4,57.8,124.5z"/>
	<path d="M49.6,99.4c0.1,0.2,0.1,0.3,0.1,0.4c0,0.1-0.1,0.1-0.2,0.2c-0.1-0.1-0.2-0.2-0.2-0.3C49.3,99.6,49.5,99.5,49.6,99.4z"/>
	<path d="M47.3,97.8c-0.1,0.1-0.1,0.2-0.2,0.2c-0.1,0-0.1-0.1-0.2-0.1c0,0,0.1-0.1,0.1-0.1C47.1,97.7,47.2,97.8,47.3,97.8z"/>
	<path d="M48.7,101.1c-0.1-0.1-0.3-0.3-0.1-0.5c0,0,0.1,0,0.2,0C48.8,100.8,48.7,100.9,48.7,101.1C48.7,101.1,48.7,101.1,48.7,101.1
		z"/>
</g>
<g>
	<path d="M80,118.9c-0.3,0-0.5,0-0.7,0c-0.8,0-0.8,0-0.8-0.8c0-0.9,0-1.8,0.1-2.6c0-0.1,0-0.3,0-0.4c0-0.4,0.2-0.5,0.5-0.5
		c0.3,0,0.6,0,0.9,0c-0.1-4.6-0.2-9.1-0.3-13.7c-0.3,0-0.6,0.1-0.9,0.1c-0.7,0.1-0.9-0.1-0.9-0.8c0-0.9-0.1-1.9-0.1-2.8
		c0-0.8,0.1-0.9,0.9-1c0.2,0,0.4,0,0.6,0c0-0.4,0-0.8,0-1.2c0-1.3-0.1-2.6-0.1-3.8c0-0.4,0-0.7,0-1.1c0-0.5,0.1-0.6,0.5-0.6
		c0.7-0.1,1.4-0.1,2.1-0.1c0.9,0,1.8,0,2.7,0.1c0.9,0,1.7,0.1,2.6,0.2c0.5,0,0.9,0,1.4,0.1c0.4,0,0.7-0.1,1.1,0.2
		c0.1,0.1,0.4,0.1,0.6,0.1c1.2-0.1,2.3,0.2,3.4,0.5c1.4,0.4,2.8,1,4.2,1.6c1.3,0.6,2.4,1.6,3.4,2.6c1.3,1.3,2.4,2.7,3.3,4.3
		c0.8,1.4,1.4,2.8,1.8,4.3c0.1,0.4,0.5,0.6,0.5,1.1c0,1,0.2,1.9,0.2,2.9c0.1,1,0,2,0,3.1c0,0.1,0,0.3,0,0.3c-0.5,0.2-0.3,0.6-0.4,1
		c-0.5,2.7-1.5,5.3-3.2,7.6c-1.5,2-3.3,3.6-5.5,4.9c-1.1,0.6-2.3,0.8-3.5,1c-1.6,0.2-3.1,0.4-4.7,0.3c-0.1,0-0.2,0-0.2,0
		c-1.1,0.5-2.2,0.1-3.4,0.2c-0.2,0-0.5-0.1-0.7,0.1c-0.1,0.1-0.2,0.1-0.3,0.1c-1.2-0.2-2.5,0.1-3.7,0.1c-0.2,0-0.4,0-0.6,0
		c-0.8-0.1-1-0.3-1-1.1c0-1.7,0-3.4,0-5.1C80,119.5,80,119.3,80,118.9z M79.9,90c0,0.1-0.1,0.2-0.1,0.3c0,1.4,0,2.8,0,4.1
		c0,0.7,0,1.5,0.1,2.2c0.1,1.8,0.3,3.6,0.3,5.3c0.1,2.7,0.1,5.4,0.2,8.1c0.1,2.8,0.2,5.5,0.2,8.3c0,1.8,0,3.7,0,5.5
		c0,0.5,0.1,1,0.1,1.6c0.4,0,0.7,0,1,0c1.2-0.2,2.5-0.5,3.8-0.2c0.2-5.9-0.2-11.7-0.2-17.5c0-5.8,0-11.7,0.1-17.6
		C83.5,90.1,81.7,89.9,79.9,90z M87.9,118.5c-0.3,0.5-0.5,0.6-1.1,0.5c-0.2,0-0.5,0-0.7,0c0,0.9,0,1.7,0,2.7c0.7,0,1.3,0,2,0
		c0.3,0,0.7,0,0.9,0.1c0.4,0.2,0.7,0.2,1.1,0.3c1.6,0,3.2-0.2,4.7-0.6c1.7-0.5,3.2-1.3,4.5-2.5c1.7-1.5,2.9-3.4,3.4-5.7
		c0.2-1,0.7-1.9,0.2-2.9c-0.1-0.2-0.1-0.4-0.1-0.6c0-0.2-0.1-0.3-0.1-0.5c-1.6,0-3.2,0-4.8,0c-0.2,0.7-0.4,1.3-0.6,1.9
		c-0.5,2.1-1.7,3.8-3.2,5.3c-0.3,0.3-0.7,0.5-1,0.7C91.5,118.2,89.7,118.5,87.9,118.5z M85.8,100.8c0,0.3,0,0.5,0,0.6
		c0,3.9,0,7.9,0.1,11.8c0,0.4,0.1,0.7,0.1,1c0.7,0.4,1.4-0.1,2,0.5c0,0,0.1,0,0.1,0c1.3-0.2,2.4-0.5,3.4-1.4c1.1-1,1.7-2.2,2.1-3.6
		c0.1-0.2,0.1-0.4,0.1-0.6c-0.5,0-0.9,0-1.3,0c-0.6,0-1.3,0-1.9-0.1c-0.5-0.1-0.7-0.4-0.7-0.9c0-0.5,0-1,0-1.6
		c0.1-0.8,0.5-1.2,1.4-1.2c0.4,0,0.9,0,1.3,0c0.6,0,1.2,0,1.7-0.2c-0.3-1.4-1.2-2.7-2.3-3.4c-0.9-0.6-1.9-0.9-3-1.2
		c-0.4-0.1-0.9-0.1-1.3,0.1c-0.4,0.2-0.7,0.2-1.1,0.2C86.3,100.8,86.1,100.8,85.8,100.8z M102.9,104.1c-0.1-0.4-0.2-0.7-0.3-0.9
		c-0.5-0.9-0.9-1.9-1.4-2.8c-0.8-1.5-2-2.8-3.4-3.8c-0.4-0.3-0.9-0.5-1.3-0.9c-0.7-0.6-1.6-0.9-2.4-1.1c-0.6-0.2-1.1-0.3-1.7-0.5
		c-0.6-0.1-1.3-0.2-2-0.3c-0.2,0-0.5,0-0.5,0.1c-0.2,0.5-0.6,0.4-1,0.4c-0.7,0-1.5,0-2.2,0c-0.2,0-0.5,0-0.7,0.1c0,0.6,0,1.2,0,1.8
		c0.8,0.2,1.6-0.2,2.2,0.6c0,0.1,0.2,0.1,0.3,0.1c1.4,0.2,2.7,0.6,4,1.1c1,0.4,2,0.8,2.7,1.6c1.1,1.1,1.8,2.4,2.2,3.9
		c0.2,0.6,0.4,1.3,0.6,1.9c0.7,0.2,3.9,0.1,4.5-0.1c0-0.3,0-0.7,0-1C102.6,104.1,102.7,104.1,102.9,104.1z M89.4,125
		c1.1,0,2.2,0,3.2-0.1c0.8-0.1,1.7-0.2,2.5-0.4c0.9-0.2,1.8-0.4,2.6-0.9c0.9-0.5,1.8-1.1,2.6-1.8c1-0.8,1.8-1.8,2.6-2.8
		c1.6-2.1,2.5-4.6,3-7.2c0.1-0.3,0.1-0.5,0.1-0.8c-0.9-0.3-1.7,0-2.6,0c-0.1,0.4-0.2,0.7-0.2,1c-0.4,2-1.1,3.9-2.4,5.6
		c-0.6,0.7-1.1,1.4-1.8,1.9c-0.7,0.6-1.5,1-2.4,1.5c-1.8,0.9-3.8,1.4-5.8,1.4c-0.5,0-1,0-1.6,0C89.4,123.3,89.4,124.1,89.4,125z
		 M105.9,103.9c0-0.2,0-0.3-0.1-0.4c-0.4-1.4-1-2.7-1.7-4c-0.9-1.7-2.2-3.2-3.6-4.5c-0.9-0.9-1.9-1.7-3-2.2
		c-1.4-0.7-2.9-1.2-4.5-1.6c-1.1-0.3-2.2-0.5-3.3-0.5c0,0.9,0,1.7,0,2.6c1.7,0.1,3.3,0.4,4.8,0.9c0.5,0.2,1.1,0.3,1.5,0.6
		c1,0.6,1.9,1.3,2.8,1.9c0.3,0.2,0.5,0.4,0.7,0.7c1.6,1.5,2.7,3.4,3.5,5.4c0.2,0.4,0.3,0.9,0.5,1.4
		C104.3,104.1,105.1,104,105.9,103.9z M87.8,115.3c0,1-0.1,1.9,0.1,2.8c0.8-0.1,1.6-0.3,2.4-0.4c1.2-0.1,2.1-0.7,3.2-1.2
		c0.1,0,0.2-0.1,0.2-0.2c1.2-1.2,2.2-2.5,2.8-4.1c0.3-0.9,0.6-1.7,0.8-2.6c-1-0.1-1.9-0.2-2.9-0.3c-0.1,0.3-0.3,0.7-0.4,1.1
		c-0.5,1.3-1.2,2.5-2.3,3.4c-0.7,0.6-1.5,1-2.5,1.1C88.6,115.1,88.2,115.2,87.8,115.3z M97.5,105.4c-0.3-0.9-0.6-1.8-0.9-2.6
		c-0.7-2-2-3.4-4-4.2c-1.1-0.5-2.1-0.8-3.2-1.1c-0.4-0.1-0.9-0.2-1.4-0.3c-0.1,1-0.1,1.9-0.2,2.8c1.7-0.1,3.2,0.4,4.6,1.3
		c1.4,1,2,2.5,2.5,4C96.1,105.8,96.4,105.8,97.5,105.4z M102.8,104.6c0.1,2,0.3,3.9,0.4,5.8c1.2,0,2.3,0,3.5,0c-0.3-2,0.1-4-0.3-6
		C105.2,104.5,104.1,104.6,102.8,104.6z M98,105.7c0,0.6,0,1.1,0,1.6c0,0.5-0.1,1-0.1,1.5c1.6,0,3.2,0,4.8,0
		c-0.1-1.1-0.1-2.1-0.2-3.1C101,105.7,99.5,105.7,98,105.7z M85.9,90.2c0,1.2,0,2.4,0,3.7c1.1,0,2.1-0.1,3.2-0.1
		c-0.1-1.2,0.2-2.2-0.1-3.3C88,90.3,87,90.3,85.9,90.2z M90.2,108.5c1.2,0.5,2.4,0.2,3.6,0.3c0.3-1.1,0.5-2,0.4-3
		c-0.5,0-0.8,0-1.2,0c-0.6,0-1.3,0-1.9,0c-0.6,0-0.9,0.3-0.9,0.9C90.2,107.2,90.2,107.8,90.2,108.5z M86.1,122.2c0,1,0,2,0,3
		c1,0,1.9,0,2.9,0c0-1,0-2,0-3C87.9,122.2,87,122.2,86.1,122.2z M94.5,108.6c0.7,0.5,1.4,0.5,2.2,0.4c0.3-0.1,0.7-0.1,0.7-0.5
		c0.1-0.8,0.2-1.7,0.1-2.5c-1.4,0.2-1.4,0.2-2.6-0.1C94.7,106.7,94.6,107.6,94.5,108.6z M87.4,96.8c-0.5,0-1-0.3-1.5-0.1
		c0,1.2,0,2.4,0,3.6c0.3,0,0.6,0,0.9,0c0.3,0,0.5-0.1,0.5-0.5c0-0.5,0.1-1,0.1-1.6C87.4,97.9,87.4,97.4,87.4,96.8z M87.3,118.5
		c0-1.2,0-2.3,0-3.5c-0.4,0-0.9-0.1-1.3-0.1c0,1.3,0,2.5,0,3.7C86.5,118.6,86.9,118.6,87.3,118.5z M78.4,96.9c0,1.2,0,2.3,0,3.4
		c0.4,0,0.8,0,1.3,0c-0.1-1.2-0.1-2.3-0.2-3.4C79.1,96.9,78.8,96.9,78.4,96.9z M80,118.3c0-1.1,0-2.2,0-3.2c-0.4,0-0.6,0-0.9,0
		c0,1.1,0,2.2,0,3.3C79.4,118.4,79.6,118.4,80,118.3z"/>
	<path d="M82.5,99c0,1.9-0.1,3.7-0.1,5.6c0,2.4,0.2,4.8,0.3,7.1c0,0.8,0,1.7,0,2.5c0,0.6,0.1,1.2,0,1.8c0,0.5-0.1,1.1-0.2,1.6
		c-0.1,0.3-0.3,0.6-0.7,0.5c-0.3,0-0.6-0.3-0.7-0.6c-0.2-0.7-0.2-1.3-0.2-2c0.1-0.6,0.1-1.3,0.2-1.9c0-0.5,0-1-0.1-1.6
		c0-2.6-0.1-5.2-0.1-7.8c0-1.7-0.1-3.4-0.2-5c0-0.4,0-0.8,0.1-1.2c0.1-0.4,0.4-0.7,0.8-0.7c0.4,0,0.7,0.2,0.8,0.6
		c0.1,0.3,0.1,0.7,0.1,1C82.6,99,82.5,99,82.5,99z M82.2,115.1c-0.1-4.8-0.2-9.5-0.3-14.3c-0.2,0-0.4-0.1-0.7-0.1c0,1.2,0,2.3,0,3.3
		c0,0.3,0.1,0.6,0.1,0.9c0.1,2.7,0.1,5.4,0.1,8.1c0,0.7,0,1.4,0,2.2C81.8,115.1,82,115.1,82.2,115.1z M82.1,100.3c0-0.3,0-0.6,0-0.9
		c0-0.4,0-0.7,0-1.1c0-0.2-0.2-0.4-0.4-0.4c-0.3,0-0.4,0.2-0.4,0.5c0,0,0,0.1,0,0.1c0,0.6,0,1.1,0,1.7c0.2,0.1,0.4,0.1,0.5,0.1
		C81.8,100.4,81.9,100.3,82.1,100.3z M81.4,115.6c-0.3,1.2-0.1,1.9,0.5,2.3c0.5-0.7,0.5-1.5,0.4-2.3C82,115.6,81.7,115.6,81.4,115.6
		z"/>
	<path d="M84.9,108.1c-0.1,1.2-0.1,2.2-0.1,3.2c0,0.1,0,0.2,0,0.4c0.3,1-0.1,1.9-0.2,2.8c0,0.3-0.1,0.5-0.4,0.5
		c-0.3,0-0.6,0-0.7-0.3c-0.1-0.3-0.3-0.6-0.3-0.9c0-0.7,0.1-1.4,0.1-2.1c0-0.2,0-0.4,0-0.6c0-2.1,0-4.3-0.1-6.4
		c0-0.9-0.1-1.8-0.1-2.7c0-0.3,0.1-0.7,0.2-0.9c0.3-0.5,0.8-0.5,1.1,0.1c0.1,0.2,0.2,0.4,0.2,0.7c0.1,1.5,0.1,2.9,0.2,4.4
		C84.9,106.9,84.9,107.6,84.9,108.1z M84.4,111.5c0-2.7,0.2-5.3,0-8c-0.3,0-0.6,0.1-0.8,0.1c0,2.7,0,5.4,0,8.1
		C83.9,111.6,84.1,111.6,84.4,111.5z M84.4,112c-0.4,0-0.6,0-0.9,0c-0.1,0.8-0.2,1.5,0,2.2c0.1,0.3,0.2,0.6,0.6,0.5
		C84.2,113.8,84.3,112.9,84.4,112z M83.5,103.1c0.3,0,0.5,0,0.8,0c0-0.7,0.1-1.4-0.4-2C83.2,101.6,83.6,102.3,83.5,103.1z"/>
	<path d="M84.3,93.3c0,0.3,0,0.6-0.1,0.8c-0.1,0.8-0.4,1.2-1.1,1.3c-0.7,0.1-1.3-0.1-1.7-0.7c-0.6-0.9-0.5-1.9,0.4-2.6
		c0.3-0.2,0.5-0.4,0.8-0.6c0.5-0.3,1.3,0.1,1.5,0.7C84.2,92.6,84.2,93,84.3,93.3z M83.7,93.6C83.7,93.6,83.7,93.6,83.7,93.6
		c0-0.3,0-0.5-0.1-0.8c-0.1-0.6-0.6-0.9-1.2-0.7c-0.3,0.1-0.5,0.3-0.7,0.5c-0.4,0.3-0.4,0.8-0.3,1.2c0.2,0.5,0.4,0.9,1,1
		c0.8,0.2,1.2-0.2,1.3-1C83.7,93.8,83.7,93.7,83.7,93.6z"/>
	<path d="M84.4,121.4c0,0.6-0.4,1.2-0.9,1.4c-0.6,0.2-1.2,0.1-1.6-0.5c-0.4-0.5-0.4-1.3,0-1.8c0.5-0.7,1-0.9,1.5-0.7
		C84,120,84.4,120.7,84.4,121.4z M84,121.5c0-0.6-0.4-1.1-1-1.1c-0.4,0-0.9,0.6-0.9,1.1c0,0.6,0.4,1.1,0.9,1.1
		C83.6,122.4,84,122,84,121.5z"/>
	<path d="M81,90.8c-0.2,0.2-0.3,0.3-0.5,0.3c-0.1,0-0.3-0.1-0.3-0.3c-0.1-0.2,0.1-0.4,0.4-0.4C80.6,90.5,80.7,90.7,81,90.8z"/>
	<path d="M84.6,91.5c-0.1-0.2-0.3-0.4-0.3-0.5c0-0.1,0.2-0.2,0.4-0.2c0.1,0,0.3,0.2,0.3,0.3C85,91.2,84.8,91.3,84.6,91.5z"/>
	<path d="M84,124.7c0.2-0.2,0.4-0.3,0.5-0.3c0.1,0,0.2,0.2,0.3,0.2c-0.1,0.1-0.2,0.3-0.4,0.3C84.4,125,84.2,124.9,84,124.7z"/>
	<path d="M81.2,125.2c-0.1-0.2-0.2-0.4-0.2-0.5c0-0.1,0.2-0.2,0.3-0.2c0.1,0.1,0.2,0.2,0.2,0.4C81.5,124.9,81.3,125,81.2,125.2z"/>
	<path d="M100.6,107c0.3-0.4,0.6-0.4,1-0.3c0.2,0.1,0.4,0.2,0.5,0.5c0,0.3-0.1,0.5-0.4,0.5c-0.3,0.1-0.5,0.1-0.7-0.2
		C100.9,107.3,100.7,107.2,100.6,107z"/>
	<path d="M100,107.2c0,0.3-0.3,0.6-0.6,0.6c-0.2,0-0.5-0.3-0.5-0.6c0-0.3,0.3-0.5,0.6-0.5C99.8,106.8,100,106.9,100,107.2z"/>
	<path d="M93,106.8c0.3,0,0.6,0.2,0.6,0.4c0,0.2-0.2,0.5-0.5,0.5c-0.3,0-0.5-0.1-0.5-0.4C92.7,107.1,92.7,106.8,93,106.8z"/>
	<path d="M91.3,107.8c-0.3,0-0.5-0.2-0.5-0.5c0-0.3,0.2-0.5,0.6-0.5c0.3,0,0.5,0.1,0.5,0.4C91.9,107.6,91.6,107.8,91.3,107.8z
		 M91.1,107.3c0,0,0,0.1,0,0.1c0.1,0,0.2,0,0.3,0c0,0,0-0.1,0-0.2C91.4,107.3,91.3,107.3,91.1,107.3z"/>
</g>
<g>
	<path d="M132.7,96.9c0,0.4,0,0.7,0,1c0.1,0.4-0.3,0.4-0.5,0.6c0,1.2,0,2.4,0,3.6c0,0.9-0.1,1.9-0.2,2.8c-0.1,0.9-0.4,1.8-0.9,2.6
		c-0.6,1-1.4,1.5-2.5,1.7c-0.3,0.1-0.7,0.1-1,0.2c-0.3,0-0.5,0-0.6,0.4c0,0.1-0.2,0.2-0.3,0.2c-0.3,0-0.6,0.1-0.9,0.1
		c0,1.8,0,3.7,0,5.6c0.5,0.1,0.6,0.5,0.5,1c0,0.5,0,0.9,0,1.5c0.5,0,0.9,0,1.4,0c0.1,0.8,0.2,1.6,0.3,2.4c0.3,0,0.5,0,0.8,0
		c2,0,4,0,5.9-0.1c0.2,0,0.4,0,0.6,0c0.2,0,0.4,0.2,0.4,0.4c0,0.3,0.1,0.5,0.1,0.8c0,1.3,0.1,2.7,0.1,4c0,0.2,0,0.4,0,0.6
		c-0.1,0.5-0.3,0.7-0.7,0.7c-0.1,0-0.3,0-0.4,0c-2.3,0-4.6,0-6.9,0c-0.5,0-1.1-0.1-1.6-0.1c-0.9,0-1.8,0.1-2.7,0.1
		c-0.2,0-0.5,0-0.7,0c-1.8,0-3.5,0-5.3,0.1c-0.9,0-1.8,0.1-2.6,0.1c-0.7,0-0.7,0-0.8-0.7c0-0.1,0-0.1-0.1-0.2
		c-0.4,0.1-0.7,0.1-1.1,0.2c0,0.2-0.1,0.5-0.1,0.8c-1.6,0-3.2,0-4.8-0.2c0-0.4,0-0.8,0-1.2c0-1.4,0-2.7,0.1-4.1c0-0.7,0-0.7,0.7-0.7
		c1,0,2-0.1,3.1-0.1c0.3,0,0.7,0.1,1,0.1c0.1,0.3,0.1,0.5,0.2,0.7c0.3,0,0.5,0,0.9,0c0-0.3,0-0.6,0-0.9c0.3-0.1,0.5-0.2,0.7-0.3
		c0-0.4,0-0.8,0.1-1.2c0.1-0.8,0.3-1,1.2-1c0.1,0,0.2,0,0.4,0c0-0.7,0-1.5,0-2.2c0.3-0.1,0.5-0.2,0.8-0.3c-0.1-4.8-0.2-9.6-0.3-14.4
		c-0.2-0.3-0.9-0.1-0.8-0.7c0-0.4,0-0.7,0.1-1.1c-0.1,0-0.2-0.1-0.3-0.1c-0.7-0.1-0.9-0.3-0.9-1c0-0.2,0-0.4,0-0.6
		c0-0.2,0-0.4,0-0.6c-2.2,0-4.4-0.1-6.7-0.1c0-0.2,0-0.4,0-0.5c0-0.7-0.1-1.3-0.1-2c0-0.5,0-1.1,0-1.6c0-0.4,0.1-0.8,0.1-1.2
		c0-1.1,0-1.1,1.2-1.1c1.8-0.1,3.6-0.2,5.4-0.2c0.9,0,1.9,0.1,2.8,0.1c1,0,1.9,0.1,2.9,0.1c2,0,4,0,6-0.1c2.8,0,5.6-0.1,8.4-0.1
		c0,0,0.1,0,0.1,0c0.9,0,0.9,0,1,0.9c0,1.3,0.1,2.6,0.1,3.9c0,0.3,0,0.6,0,0.9c0,0.7-0.1,0.8-0.8,0.8
		C134.4,96.9,133.6,96.9,132.7,96.9z M114.5,121.6c0.1,1.7,0.1,3.4,0.2,5.2c3.5-0.1,7-0.4,10.4-0.3c3.5,0.1,6.9-0.1,10.5,0
		c0.1-1.8-0.1-3.6-0.1-5.3c-4.9,0-9.7,0-14.5,0c0,0.7-0.1,1.3-0.1,1.9c0,0.5-0.2,1-0.5,1.4c-0.5,0.5-1.2,0.5-1.6-0.1
		c-0.2-0.3-0.3-0.6-0.3-0.9c-0.1-0.5-0.1-0.9-0.1-1.4c0-0.3,0-0.5,0-0.8c-1,0-1.8,0-2.7,0c-0.2,0-0.4,0.1-0.6,0.1
		c-0.2-0.1-0.4-0.1-0.7-0.2C114.3,121.3,114.4,121.5,114.5,121.6z M120.7,96.7c5-0.1,9.8-0.1,14.7-0.3c0-1.7,0-3.4,0-5
		c0-0.3-0.2-0.4-0.4-0.4c-0.2,0-0.3,0-0.5,0c-1.4,0-2.8,0.1-4.2,0.1c-1.9,0-3.8,0-5.6,0.1c-1.7,0.1-3.4,0.1-5.1-0.1
		c-1.4-0.1-2.7-0.2-4.1-0.2c-2.2,0-4.3,0.1-6.5,0.1c-0.2,0-0.3,0.1-0.4,0.1c0,1.9,0,3.8,0,5.7c3.4,0,6.6,0.1,10-0.1c0-0.5,0-1,0-1.5
		c0-0.5,0-1,0.1-1.4c0.1-0.5,0.4-0.7,0.9-0.8c0.5,0,0.8,0.2,1.1,0.6c0.3,0.5,0.3,0.9,0.3,1.4C120.8,95.5,120.8,96.1,120.7,96.7z
		 M120.8,101.3c0,4.9,0,9.8,0,14.7c1.4,0,2.9,0.1,4.3-0.1c0-2.5,0-4.9,0-7.3c0-2.4,0.3-4.8,0.2-7.2
		C123.8,101.3,122.4,101.3,120.8,101.3z M120.5,95.6C120.4,95.6,120.4,95.6,120.5,95.6c0-0.4,0-0.7,0-1.1c0-0.3-0.1-0.6-0.2-0.8
		c-0.1-0.2-0.4-0.4-0.6-0.4c-0.3-0.1-0.5,0.2-0.6,0.5c-0.1,0.4-0.2,0.7-0.2,1.1c0,1.8,0.2,3.5,0.2,5.3c0,1.5-0.1,3-0.1,4.6
		c0,1.9,0,3.8,0,5.7c0,3.2-0.1,6.4-0.1,9.6c0,0.8-0.1,1.7-0.1,2.5c0,0.5,0.1,0.9,0.3,1.4c0.2,0.4,0.5,0.4,0.8,0.1
		c0.4-0.3,0.6-0.6,0.6-1.1c0-0.4,0.1-0.7,0.1-1.1c0-2.7,0-5.4,0-8.1c0-1.5,0-3,0-4.4c0-2.4-0.1-4.9-0.1-7.3c0-1,0.1-2,0.1-3
		c0-0.7-0.1-1.3-0.1-2C120.4,96.7,120.4,96.2,120.5,95.6z M125.8,106.6c0.5,0.1,1,0.3,1.5,0.4c0.9,0.1,1.6-0.3,2-1.2
		c0.5-1.1,0.6-2.3,0.5-3.4c0-1.1-0.1-2.2-0.2-3.3c0-0.3,0-0.6-0.4-0.8c-0.1,0-0.2-0.3-0.2-0.4c0-0.3,0-0.5-0.1-0.8
		c-0.5-0.1-1.1-0.1-1.6,0.1c0,0.4,0.1,0.8,0.1,1.2c0,0.7-0.2,1.2-1,1.1c-0.1,0-0.1,0-0.2,0.1c0,0.2-0.1,0.4-0.1,0.6
		c0,0.1,0,0.3,0,0.4c0,0.2,0,0.5-0.1,0.6c-0.3,0.2-0.2,0.4-0.2,0.6c0,0.3,0.1,0.6,0,0.9C125.9,103.9,125.8,105.3,125.8,106.6z
		 M130.1,98.5c0,0.5,0,1,0,1.5c0,1.2,0.1,2.4,0.1,3.6c0,0.9-0.2,1.8-0.7,2.6c-0.5,0.9-1.3,1.4-2.3,1.2c-0.1,0-0.1,0-0.2,0.1
		c0,0.6,0.1,1.1,0.1,1.7c0.6-0.1,1-0.2,1.5-0.3c1.3-0.3,2.1-1.2,2.5-2.4c0.4-1,0.5-2.1,0.5-3.1c0-1.2,0-2.4,0.1-3.6
		c0-0.4,0.1-0.8,0.1-1.3C131.3,98.5,130.8,98.5,130.1,98.5z M117.2,101.3c0,1.2,0.1,2.3,0.1,3.4c0.1,2.3,0.1,4.6,0.1,6.9
		c0,1.3,0,2.6,0.1,3.8c0,0.2,0,0.3,0.1,0.5c0.3,0,0.5,0,0.7,0.1c0.1-4.9,0.1-9.8,0.2-14.7C118.1,101.3,117.7,101.3,117.2,101.3z
		 M120.8,99.2c2.1-0.1,4.2-0.2,6.2-0.3c0-0.7,0-1.3,0-1.9c-2.1,0-4.1,0-6.2,0C120.8,97.8,120.8,98.4,120.8,99.2z M127.4,118.7
		c-2.2,0-4.4,0.1-6.6,0.1c0,0.6,0,1.2,0,1.9c2.2,0,4.4-0.1,6.7-0.1C127.5,120,127.5,119.4,127.4,118.7z M108.4,121.4
		c0,0.3,0,0.5,0,0.8c0,1.3,0,2.7,0,4c0,0.3,0.1,0.6,0.4,0.6c1.1,0,2.3,0,3.4,0c0.1-1.8,0.2-3.6,0.3-5.3
		C111.2,121.4,109.8,121.4,108.4,121.4z M125.9,116.4c-1.7,0-3.4,0-5,0c-0.1,0.7-0.1,1.4-0.1,2c1.7,0,3.4-0.1,5.1-0.1
		c0-0.4,0-0.7,0-0.9C125.8,117,125.9,116.7,125.9,116.4z M115.3,97.2c0,0.7,0,1.3,0,1.9c1.1,0,2.1,0.1,3.1,0.1c0-0.7,0-1.4,0-2.1
		C117.4,97,116.4,97.2,115.3,97.2z M125.5,100.8c0.3-0.5,0.1-0.9,0-1.3c-1.6,0.1-3.1,0.1-4.6,0.2c0,0.4,0,0.8,0,1.2
		C122.5,100.8,124,100.8,125.5,100.8z M118.2,118.9c-1,0-2,0-3.1,0c0,0.6,0,1.2,0,1.7c1,0,2,0,3.1,0
		C118.2,120,118.2,119.5,118.2,118.9z M116.7,116.3c-0.1,0.7-0.1,1.4,0,2c0.6,0,1.1,0,1.6,0c0-0.7,0-1.3,0-2c-0.2,0-0.3,0-0.5,0
		C117.5,116.3,117.1,116.3,116.7,116.3z M129.5,97.9c0.9,0.2,2.2,0.1,2.7-0.1c0-0.3,0-0.5,0-0.8c-1-0.1-2.3-0.1-2.8,0.1
		C129.5,97.3,129.5,97.6,129.5,97.9z M118.5,99.6c-0.7,0-1.4,0-2,0c0,0.4,0,0.8,0,1.2c0.7,0,1.4,0,2,0
		C118.5,100.4,118.5,100,118.5,99.6z M126.5,109.6c0-0.8,0-1.6,0-2.4c-0.3,0-0.5,0-0.7,0c0,0.8,0,1.6,0,2.4
		C126.1,109.6,126.3,109.6,126.5,109.6z M114,122.2c-0.2,0-0.4,0-0.5,0c0,1.3,0,2.4,0,3.6c0.4,0.1,0.6-0.1,0.6-0.5
		C114.1,124.4,114,123.3,114,122.2z M113.1,122.6C113.1,122.6,113.1,122.6,113.1,122.6c-0.1,1-0.2,2-0.2,3c0,0.2-0.1,0.4,0.2,0.4
		C113.1,124.8,113.1,123.7,113.1,122.6z"/>
	<path d="M113,95.7c-0.8,0-1.7,0-2.5,0c-0.4,0-0.5-0.2-0.5-0.5c-0.2-1.4,0.6-2.8,1.9-3.3c0.7-0.3,1.5-0.5,2.3-0.3
		c0.3,0.1,0.6,0.3,0.8,0.5c0.6,0.6,1,1.3,1,2.2c0,0.3,0.1,0.6,0.1,0.9c0,0.5,0,0.6-0.5,0.6C114.7,95.8,113.9,95.8,113,95.7
		C113,95.7,113,95.7,113,95.7z M110.3,95.1c0,0,0,0.1,0,0.1c0.2,0,0.4,0,0.6,0c1.5,0,2.9,0,4.4,0c0.1,0,0.1-0.1,0.2-0.1
		c-0.2-0.1-0.4-0.2-0.7-0.3c0.3-0.1,0.8-0.1,0.5-0.6c-0.2-0.1-0.5,0.1-0.7-0.3c0.2-0.1,0.5-0.1,0.8-0.2c-0.2-0.3-0.3-0.6-0.5-0.9
		c-0.6,0.7-1.2,1.3-1.8,1.9c-0.1,0.1-0.2,0.2-0.2,0.2c-0.2,0-0.4,0-0.5-0.1c-0.2-0.2,0-0.3,0.2-0.4c0.4-0.3,0.8-0.5,1.2-0.8
		c0.4-0.3,0.7-0.7,0.7-1.2c-0.3-0.4-0.8-0.4-1.2-0.4c-0.1,0.3-0.1,0.5-0.2,0.8c0,0-0.1,0-0.1,0c0-0.2-0.1-0.4-0.2-0.7
		c-0.3,0.1-0.7,0.2-0.9,0.3c0.1,0.3,0.2,0.5,0.3,0.7c0,0-0.1,0.1-0.1,0.1c-0.2-0.1-0.4-0.3-0.6-0.5c-0.2,0.2-0.4,0.4-0.5,0.6
		c0.2,0.2,0.3,0.4,0.5,0.6c-0.4,0-0.6,0-0.8,0c0,0.2-0.1,0.5-0.1,0.7c0.3,0.1,0.6,0.1,0.8,0.2c0,0.1,0,0.1,0,0.2
		C110.9,94.9,110.6,95,110.3,95.1z"/>
	<path d="M130.4,95.8c-0.6-0.1-1.3-0.3-1.6-1c-0.3-0.7-0.3-1.4,0.2-2.1c0.3-0.4,0.7-0.7,1.1-0.9c0.4-0.3,1.1-0.1,1.5,0.2
		c0.1,0.1,0.3,0.3,0.4,0.4c0.6,0.6,0.9,1.2,0.5,2C132.1,95.3,131.5,95.8,130.4,95.8z M132.3,93.6c0-0.1,0-0.2-0.1-0.3
		c-0.3-0.3-0.5-0.6-0.8-0.9c-0.1-0.1-0.4-0.2-0.6-0.2c-0.4,0.1-0.8,0.2-1.1,0.5c-0.5,0.4-0.7,1-0.6,1.6c0.1,0.6,0.6,0.8,1.1,0.9
		C131.2,95.5,132.3,94.7,132.3,93.6z"/>
	<path d="M126.9,94c0,0.4-0.4,0.7-0.8,0.7c-0.4,0-0.9-0.4-0.9-0.8c0-0.4,0.5-0.9,0.9-0.9C126.5,93.1,126.9,93.5,126.9,94z M125.5,94
		c0.1,0.1,0.3,0.2,0.4,0.3c0.1,0,0.4,0,0.4-0.1c0.1-0.1,0.1-0.3,0-0.4c-0.1-0.1-0.3-0.3-0.4-0.3C125.6,93.4,125.5,93.7,125.5,94z"/>
	<path d="M123.1,94.8c-0.5,0-0.9-0.5-0.9-0.9c0-0.4,0.4-0.8,0.8-0.8c0.5,0,0.9,0.5,0.9,1C123.9,94.4,123.5,94.8,123.1,94.8z
		 M122.8,93.4c-0.1,0.1-0.2,0.2-0.3,0.4c-0.1,0.3,0.2,0.5,0.5,0.6c0.2,0,0.4,0,0.5-0.3C123.6,93.7,123.3,93.4,122.8,93.4z"/>
	<path d="M135.2,91.5c-0.2,0.1-0.4,0.3-0.5,0.3c-0.1,0-0.3-0.2-0.4-0.3c0.1-0.1,0.3-0.2,0.4-0.2C134.9,91.2,135,91.4,135.2,91.5z"/>
	<path d="M134.9,95.4c0.1,0.2,0.2,0.2,0.3,0.4c0,0.1-0.1,0.2-0.2,0.2c-0.1,0-0.3-0.1-0.3-0.2C134.6,95.7,134.8,95.6,134.9,95.4z"/>
	<path d="M109.1,91.3c-0.1,0.1-0.2,0.2-0.2,0.2c-0.1,0-0.2-0.1-0.2-0.2c0.1-0.1,0.1-0.2,0.2-0.2C108.9,91.2,109,91.3,109.1,91.3z"/>
	<path d="M109.2,96.1c-0.1,0.1-0.2,0.2-0.3,0.2c0,0-0.2-0.1-0.2-0.1c0-0.1,0.1-0.2,0.2-0.2C109,96,109.1,96,109.2,96.1z"/>
	<path d="M125.4,122.8c1,0,2-0.1,3.1-0.1c0.5,0,0.9,0,1.4,0c0.2,0,0.5,0,0.6-0.1c0.3-0.4,0.7-0.4,1.1-0.4c0.5,0,1,0,1.6,0.1
		c0.6,0.1,1.1,0.3,1.3,0.9c0.2,0.6,0.1,1.2-0.4,1.7c-0.4,0.4-0.9,0.6-1.4,0.8c-0.6,0.1-1.2,0.3-1.8,0c-0.2-0.1-0.5-0.1-0.8-0.1
		c-1.4,0-2.8,0-4.1,0c-0.2,0-0.4,0.1-0.6,0.2c0,0,0,0-0.1,0c-0.9,0.3-1.7,0.1-2.5-0.3c-0.6-0.3-0.8-0.9-0.8-1.6
		c0-0.8,0.6-1.2,1.3-1.5c0.4-0.2,1-0.2,1.5-0.2c0.2,0,0.4,0.3,0.7,0.4C125.4,122.7,125.4,122.7,125.4,122.8z M130.5,123
		c-1.7,0.1-3.4,0.1-5.1,0.2c0,0.6,0.1,1.2,0.1,1.8c0.1,0,0.1,0,0.2,0c0.1-0.3,0.1-0.6,0.2-0.9c0.1,0,0.1,0,0.2,0
		c0.1,0.3,0.2,0.6,0.3,0.9c0,0,0.1,0,0.1,0c0-0.3,0.1-0.5,0.1-0.8c0.4,0.1,0.1,0.8,0.6,0.7c0.3-0.2,0-0.7,0.4-0.8
		c0.1,0.7,0.1,0.7,0.5,0.7c0.1-0.3,0.1-0.5,0.2-0.8c0.4,0.2,0,0.8,0.6,0.8c0-0.1,0-0.3,0.1-0.4c0-0.1,0.1-0.3,0.1-0.4
		c0,0,0.1,0,0.1,0c0.1,0.3,0.2,0.6,0.3,0.9c0.5-0.1,0.2-0.7,0.5-0.9c0.1,0.3,0.1,0.6,0.2,0.9c0.4,0.1,0.5-0.1,0.4-0.4
		C130.5,124,130.5,123.6,130.5,123z M131.1,125.3c0.8,0,1.5-0.1,2.1-0.5c0.2-0.1,0.4-0.3,0.5-0.4c0.4-0.7,0.4-1.5-0.4-1.8
		c-0.8-0.2-1.6-0.2-2.5-0.1C131,123.5,131,124.4,131.1,125.3z M124.9,122.7c-0.7-0.1-1.3,0-1.8,0.3c-0.4,0.3-0.7,0.6-0.6,1.1
		c0.1,0.5,0.4,0.9,0.9,1.1c0.5,0.1,1,0.1,1.5,0.2C124.9,124.4,124.9,123.6,124.9,122.7z"/>
	<path d="M114.4,121.6c0.1-0.1,0.3-0.3,0.4-0.4c0,0.2,0,0.3,0,0.5C114.8,121.7,114.6,121.6,114.4,121.6z"/>
	<path d="M134.8,122c-0.1-0.1-0.2-0.3-0.2-0.3c0.1-0.1,0.2-0.2,0.3-0.3c0.1,0.1,0.2,0.2,0.2,0.2C135.1,121.7,135,121.8,134.8,122z"
		/>
	<path d="M115.1,126.6c-0.1-0.1-0.2-0.2-0.2-0.3c0-0.1,0.1-0.2,0.2-0.2c0.1,0,0.2,0.1,0.2,0.2C115.3,126.3,115.2,126.4,115.1,126.6z
		"/>
	<path d="M135,125.7c0.1,0.1,0.2,0.2,0.2,0.2c0,0.1-0.1,0.2-0.2,0.2c0,0-0.2-0.1-0.2-0.2C134.8,126,134.9,125.9,135,125.7z"/>
	<path d="M108.9,124.3c0-1,0.6-1.9,1.4-2.2c0.5-0.2,0.8-0.1,1.2,0.3c0.7,0.8,0.9,2.3-0.3,3.2c-0.8,0.6-1.8,0.3-2.1-0.6
		C108.9,124.7,108.9,124.4,108.9,124.3z M109.3,124.1c0,0.6,0.2,0.9,0.7,1.1c0.4,0.1,0.7,0,1.1-0.4c0.5-0.5,0.5-1.5,0-2
		c-0.2-0.2-0.3-0.3-0.6-0.2C109.8,122.7,109.3,123.4,109.3,124.1z"/>
	<path d="M111.7,126.7c-0.1-0.2-0.2-0.3-0.1-0.4c0-0.1,0.2-0.2,0.2-0.3c0.1,0.1,0.2,0.1,0.2,0.2C112,126.4,111.9,126.5,111.7,126.7z
		"/>
	<path d="M108.9,125.8c0.1,0.1,0.2,0.2,0.2,0.3c0,0.1-0.1,0.2-0.2,0.2c-0.1-0.1-0.2-0.1-0.2-0.2C108.7,126,108.8,125.9,108.9,125.8z
		"/>
	<path d="M113.7,122.7c0,0.3,0,0.7,0,1C113.6,123.3,113.6,123.3,113.7,122.7z"/>
	<path d="M113.8,125.6c0-0.1,0-0.3,0-0.4c0-0.1,0-0.2,0.1-0.3c0,0.2,0,0.4,0.1,0.6C113.8,125.6,113.8,125.6,113.8,125.6z"/>
	<path d="M131.4,93.8c0,0.5-0.3,0.8-0.7,0.8c-0.4,0-0.9-0.5-0.9-0.8c0-0.4,0.4-0.8,0.8-0.8C131.1,93,131.4,93.4,131.4,93.8z
		 M130.2,93.9c0.1,0.1,0.2,0.2,0.3,0.2c0.1,0,0.4,0,0.4,0c0.1-0.2,0.1-0.4-0.1-0.6C130.6,93.3,130.5,93.4,130.2,93.9z"/>
	<path d="M110.9,123.8c-0.3,0.2-0.4,0.4-0.6,0.5c0,0-0.3-0.2-0.3-0.4c-0.1-0.2,0.1-0.5,0.3-0.4C110.5,123.5,110.6,123.7,110.9,123.8
		z"/>
</g>
<g>
	<path d="M152.8,92.1c0.5-0.5,1-0.9,1.5-1.3c0.8-0.7,1.8-0.8,2.8-0.6c2,0.4,3.3,1.9,3.5,3.9c0,0.2,0,0.5,0,0.7
		c-0.2,0.5,0,0.9,0.2,1.4c0.7,1.5,1.3,3,2,4.5c0.1,0.2,0.2,0.4,0.3,0.6c0.5-0.1,0.7,0.1,0.9,0.5c0.3,0.6,0.6,1.2,1,1.8
		c-0.2,0.2-0.4,0.4-0.6,0.5c0.3,0.8,0.6,1.6,1,2.4c0.9,2,1.7,4.1,2.6,6.1c0.5,1,0.9,2.1,1.4,3.1c0.2,0.4,0.6,0.7,0.9,1.1
		c0.2,0,0.4-0.1,0.7-0.1c0.2,0.4,0.4,0.8,0.7,1.2c0.2,0.4-0.1,0.7-0.2,1c0.3,0.9,0.6,1.8,0.9,2.7c0.2,0.8,0.1,1.6-0.2,2.3
		c-0.4,1.1-1.6,1.9-2.7,2c-1.7,0.1-2.7-0.8-3.5-2.1c-0.3-0.5-0.5-1.1-0.8-1.7c-0.1,0-0.2,0-0.3,0.1c-0.5,0.1-0.6,0.1-0.8-0.4
		c-0.1-0.3-0.3-0.6-0.4-0.9c-0.1-0.7,0-1.3-0.2-2c0-0.1,0.1-0.2,0.2-0.3c-1-2.1-1.9-4.1-2.9-6.3c-1.6,0-3.2,0-4.9,0
		c-0.6,0-1.3,0-1.9,0c-0.4,0-0.7-0.1-1,0.2c-0.1,0.1-0.3,0.1-0.4,0.1c-0.2,0-0.3,0-0.5,0c-0.5-0.1-0.8,0.1-1,0.5
		c-0.2,0.5-0.4,0.9-0.7,1.3c-0.2,0.3-0.5,0.6-0.8,0.9c0.3,0.2,0.4,0.4,0.7,0.7c-0.2,0.4-0.4,0.9-0.7,1.4c0.2,0.2,0.5,0.4,0.7,0.6
		c-0.1,0.2-0.1,0.4-0.2,0.5c-0.7,1.2-1.4,2.4-2.2,3.6c-0.3,0.4-0.5,0.8-1.1,0.5c-0.7,0.9-1.4,1.7-2.1,2.6c-1,1.2-2.3,1.9-3.8,2.1
		c-1.2,0.1-2.3-0.4-3-1.4c-1-1.5-1.3-3-0.4-4.7c0.5-1,1-2,1.4-3c-0.7-0.7-0.7-0.7-0.1-1.5c0.8-1.1,1.6-2.3,2.3-3.4
		c0.1-0.1,0.1-0.2,0.2-0.2c0.7-0.2,0.9-1,1.4-1.4c0.2,0.1,0.4,0.1,0.6,0.2c2.2-3.9,4.5-7.7,6.7-11.7c-0.1-0.1-0.2-0.2-0.3-0.3
		c-0.6-0.4-0.7-0.6-0.5-1.2c0.1-0.3,0.2-0.6,0.4-0.9c-0.2-0.2-0.4-0.3-0.6-0.5c-0.3-0.3-0.4-0.5-0.2-0.9c0.9-1.4,1.8-2.7,2.6-4.1
		c0.2-0.3,0.5-0.4,0.9-0.2C152.4,91.9,152.6,92,152.8,92.1z M157.1,104.4c-0.2,0-0.4-0.1-0.5-0.3c-0.1-0.2-0.3-0.5-0.5-0.7
		c-0.3,0-0.5,0-0.8,0c-1.1,2.1-2.5,4.1-3.6,6.3c2.6,0.4,5.1,0.2,7.7,0.1c-0.5-1-0.9-1.9-1.3-2.9c-0.4,0-0.8,0.1-1-0.1
		c-0.5-0.5-0.7-1.2-1-1.8C156.6,104.7,156.8,104.6,157.1,104.4c1.8-1,3.6-1.9,5.4-2.9c-0.4-1.2-2-4.8-2.3-5.2
		c-0.2,0.5-0.5,0.9-0.7,1.4c0.1,0.2,0.2,0.4,0.3,0.6c0.4,0.8,0.9,1.7,1.3,2.5c0.3,0.6,0.2,0.7-0.3,0.9c-0.4,0.2-0.7,0.4-1.1,0.6
		c-0.5,0.3-1,0.5-1.5,0.7c-0.4,0.2-0.6,0.1-0.8-0.3c-0.1-0.2-0.3-0.5-0.4-0.8c-0.2,0.3-0.3,0.5-0.4,0.6
		C156.7,103.3,156.9,103.9,157.1,104.4z M146.7,121.9L146.7,121.9c0.2,0.2,0.3,0,0.5-0.2c0.6-1.1,1.3-2.2,1.9-3.3
		c0.1-0.2,0.2-0.3,0.3-0.5c-0.4-0.3-0.7-0.5-1.1-0.7c-0.2,0.4-0.4,0.8-0.6,1.1c0.4,0.9,0.3,1.6-0.4,2.3c-0.5,0.5-1.7,0.7-2.3,0.3
		c-1.1-0.9-1.4-1.8-0.7-3.2c0.2-0.4,0.6-0.7,1.1-0.7c0.3,0,0.5-0.2,0.6-0.4c0.1-0.2,0.2-0.4,0.3-0.6c-0.4-0.4-0.8-0.7-1.2-1
		c-0.2,0.3-0.3,0.5-0.4,0.7c-0.2,0.3-0.4,0.7-0.6,1c-0.4,0.5-1,0.5-1.3-0.1c-0.1-0.1-0.1-0.3-0.1-0.5c-0.1-0.5,0.1-0.9,0.3-1.3
		c0.2-0.5,0.2-0.6-0.2-0.9c-0.3-0.3-0.6-0.5-1-0.8c-1,1.4-1.9,2.8-2.9,4.2c0.1,0.1,0.2,0.2,0.3,0.3c1.3,0.8,2.5,1.6,3.8,2.4
		C144.1,120.6,145.4,121.2,146.7,121.9z M158.6,106.7c1.8,3.9,3.6,7.7,5.4,11.6c1.7-0.8,3.3-1.5,4.8-2.2c-1.7-4-3.3-7.8-4.9-11.8
		C162.1,105.1,160.4,105.9,158.6,106.7z M155.7,102.8c0.3-0.5,0.6-1,0.9-1.4c0.7-1.1,1.3-2.2,1.9-3.2c0.5-0.8,0.9-1.7,1.4-2.6
		c0.3-0.6,0.3-1.2,0.2-1.8c-0.4-1.5-1.3-2.5-2.8-2.9c-1.1-0.3-2.1-0.1-2.9,0.6c-0.5,0.4-1,0.9-1.4,1.4c-1,1.5-1.9,3-2.9,4.6
		c-0.3,0.5-0.4,1-0.6,1.5c0.6,0.3,1.1,0.6,1.6,0.8c0.3-0.5,0.5-1,0.8-1.4c0.2-0.3,0.4-0.5,0.7-0.7c0.4-0.3,0.9-0.1,1,0.4
		c0.1,0.3,0.1,0.6,0,0.8c-0.1,0.4-0.4,0.9-0.6,1.3c-0.1,0.3-0.3,0.6-0.5,0.9C153.6,101.6,154.6,102.2,155.7,102.8z M139.2,118.4
		c-0.1,0.2-0.3,0.4-0.4,0.6c-0.4,0.8-0.8,1.6-1.2,2.3c-0.8,1.6-0.4,3,0.6,4.4c0.2,0.2,0.4,0.3,0.6,0.5c1.5,0.8,2.9,0.4,4.2-0.5
		c1-0.7,1.7-1.7,2.4-2.6c0.2-0.3,0.4-0.6,0.6-0.8C143.7,120.9,141.5,119.7,139.2,118.4z M155.1,103.1c-0.9-0.6-1.8-1.1-2.7-1.6
		c-2.2,4-4.3,7.8-6.4,11.8c0.5,0.3,0.9,0.5,1.4,0.7c0.3-0.4,0.7-0.7,0.5-1.3c0-0.1,0-0.2,0.1-0.3c0.5-1,1.2-1.9,1.8-2.7
		c0.6,0,1.1,0,1.5,0C152.5,107.5,153.8,105.3,155.1,103.1z M153,97.9c-0.5,0.2-0.7,0.5-0.9,0.9c-0.8,1.3-1.5,2.6-2.2,3.9
		c-1.7,3.1-3.4,6.1-5.1,9.2c-0.6,1.1-1.3,2.2-1.8,3.4c-0.2,0.6-0.2,0.8,0.3,1.2c0.1-0.1,0.3-0.3,0.4-0.4c0.6-0.9,1.1-1.8,1.6-2.7
		c1.2-2.1,2.3-4.2,3.4-6.3c1.4-2.6,2.8-5.2,4.2-7.9C153.1,98.8,153.3,98.4,153,97.9z M165.5,121.7c0.3,0.7,0.6,1.3,0.9,1.8
		c0.7,1.1,1.6,1.9,3,1.8c1-0.1,2-0.8,2.3-1.8c0.4-1.6-0.2-2.9-0.9-4.3C169,119.9,167.2,120.8,165.5,121.7z M156.9,105
		c0.3,0.5,0.4,1.1,0.9,1.5c2.2-1.1,4.4-1.9,6.5-3.1c-0.3-0.6-0.6-1-0.9-1.6C161.2,102.8,159.1,103.9,156.9,105z M170.8,117.2
		c-0.7,0.3-1.4,0.5-2.1,0.8c-1.5,0.7-2.9,1.4-4.4,2.1c-0.2,0.1-0.3,0.2-0.5,0.3c0.2,0.4,0.4,0.8,0.6,1.1c2.3-1.1,4.5-2.2,6.8-3.3
		C171.1,117.9,171,117.6,170.8,117.2z M152.8,110.3c0,0.5,0,0.9,0.1,1.4c2.5,0,4.9,0,7.4,0c-0.2-0.5-0.4-0.9-0.5-1.2
		C157.5,110.4,155.2,110.3,152.8,110.3z M148.2,113.4c-1,1.7-1.9,3.3-2.8,4.9c0,0.1-0.1,0.2-0.1,0.3c-0.1,0.4,0.1,0.6,0.5,0.8
		c0.3,0.1,0.5,0,0.7-0.3c0.1-0.1,0.2-0.3,0.3-0.4c0.8-1.4,1.7-2.8,2.5-4.2c0.1-0.1,0.1-0.2,0.1-0.4
		C149,113.8,148.7,113.7,148.2,113.4z M148.2,112.8c0.6,0.4,1.1,0.7,1.6,0.9c0.4-0.6,0.7-1.2,1-1.7c0.6,0,1.1-0.1,1.6-0.1
		c0-0.6-0.1-1.1-0.1-1.7c-0.9,0-1.6,0-2.4,0C149.3,111.1,148.7,111.9,148.2,112.8z M160.7,101.3c-0.5-1.1-1-2.1-1.6-3.2
		c-0.7,1.1-1.3,2.1-1.8,3.1c-0.1,0.1-0.1,0.3-0.1,0.5c0.2,0.4,0.4,0.7,0.6,1.1C158.8,102.3,159.7,101.8,160.7,101.3z M150.3,100.2
		c-2.3,3.9-4.5,7.8-6.8,11.7c0.2,0.1,0.4,0.2,0.6,0.3c0.1-0.2,0.3-0.4,0.4-0.6c1.4-2.4,2.8-4.9,4.1-7.3c0.7-1.2,1.3-2.3,2-3.5
		C150.8,100.4,150.7,100.4,150.3,100.2z M169.3,116.4c-1.8,0.9-3.6,1.7-5.5,2.5c0.1,0.3,0.2,0.5,0.3,0.7c1.9-0.9,3.7-1.8,5.5-2.7
		C169.6,116.8,169.5,116.6,169.3,116.4z M152.4,92.6c-0.3-0.1-0.5-0.2-0.7-0.3c-0.9,1.4-1.8,2.8-2.7,4.2c0.3,0.2,0.5,0.3,0.7,0.5
		C150.6,95.5,151.5,94.1,152.4,92.6z M145.4,117.4c-0.7,0.2-1.2,1-1,1.8c0.2,0.9,1,1.5,1.9,1.3c0.9-0.2,1.4-0.8,1.2-1.7
		c-0.2,0.3-0.3,0.5-0.5,0.7c-0.4,0.5-1,0.5-1.5,0.1c-0.5-0.4-0.6-0.9-0.4-1.5C145.1,117.9,145.2,117.7,145.4,117.4z M143.2,113.7
		c0.2-0.4,0.4-0.7,0.6-1.1c-0.4-0.3-0.7-0.5-1.1-0.7c-0.2,0.4-0.5,0.7-0.7,1C142.4,113.1,142.8,113.4,143.2,113.7z M146.5,115.4
		c0.2-0.4,0.4-0.7,0.6-1c-0.5-0.2-0.9-0.4-1.4-0.7c-0.2,0.3-0.3,0.5-0.5,0.8C145.6,114.8,146,115.1,146.5,115.4z M149.6,115.8
		c0-0.1-0.1-0.1-0.1-0.2c-0.5,0-0.5,0.5-0.7,0.7c-0.1,0.1-0.3,0.4,0.1,0.5C149.1,116.5,149.3,116.2,149.6,115.8z"/>
	<path d="M156,98.3c-1.4,0.2-2.6-0.9-3.1-2.1c-0.5-1.4,0-3,1.2-3.8c1.1-0.8,2.3-0.7,3.4,0c2,1.3,1.8,4.5-0.7,5.7
		C156.6,98.2,156.3,98.2,156,98.3z M158.3,95c0.1-1.2-0.9-2.5-2.8-2.5c-1.2,0-2.3,1.1-2.3,2.6c0,1.3,1.2,2.6,2.6,2.6
		C157.1,97.8,158.4,96.2,158.3,95z"/>
	<path d="M155.9,102c-0.2,0.2-0.3,0.3-0.5,0.3c-0.1,0-0.2-0.2-0.3-0.3c0-0.2,0.1-0.4,0.3-0.4C155.6,101.6,155.7,101.8,155.9,102z"/>
	<path d="M150.1,99.1c-0.1-0.2-0.2-0.3-0.2-0.4c0-0.1,0.2-0.2,0.2-0.2c0.1,0,0.3,0.2,0.3,0.2C150.4,98.9,150.3,99,150.1,99.1z"/>
	<path d="M137.7,123.1c0.1-1.2,0.5-2.3,1.3-3.3c0.1-0.1,0.2-0.2,0.3-0.2c0.4-0.4,0.7-0.4,1.1-0.1c0.5,0.4,0.7,0.8,0.5,1.3
		c-0.1,0.3-0.3,0.6-0.5,0.9c-0.6,1-1.1,2-0.9,3.1c0,0.3-0.2,0.5-0.6,0.5c-0.3-0.1-0.6-0.3-0.7-0.6
		C138,124.1,137.9,123.6,137.7,123.1z M138.9,124.6c-0.2-1.7,0.8-2.9,1.6-4.2c-0.2-0.2-0.5-0.4-0.7-0.6
		C138.2,121.1,137.7,123.4,138.9,124.6z"/>
	<path d="M142,113.8c-0.1,0.1-0.2,0.2-0.3,0.2c-0.1,0-0.2-0.1-0.3-0.3c0,0,0.1-0.2,0.2-0.2C141.7,113.6,141.8,113.7,142,113.8z"/>
	<path d="M149,118.2c-0.1,0.1-0.2,0.2-0.3,0.2c-0.1,0-0.2-0.2-0.2-0.2c0-0.1,0.1-0.2,0.2-0.3C148.8,118,148.9,118,149,118.2z"/>
	<path d="M146.7,121.9c-0.1-0.2-0.3-0.3-0.1-0.5c0,0,0.2,0,0.2,0C147.1,121.6,146.8,121.7,146.7,121.9
		C146.7,121.9,146.7,121.9,146.7,121.9z"/>
	<path d="M139.6,117.2c-0.1,0.1-0.2,0.2-0.3,0.2c-0.1,0-0.1-0.1-0.2-0.2c0.1-0.1,0.2-0.2,0.2-0.2C139.4,117,139.5,117.1,139.6,117.2
		z"/>
	<path d="M169.7,124.3c-1.1,0.6-2,0.4-2.7-0.7c-0.3-0.5-0.5-1-0.8-1.6c0.3-0.4,0.8-0.6,1.3-0.8C168,122.4,168.7,123.4,169.7,124.3z
		 M166.8,122.1c0.7,1.4,1.1,1.9,1.7,1.9c-0.4-0.7-0.8-1.4-1.2-2.2C167.2,121.9,167,122,166.8,122.1z"/>
	<path d="M158.5,102.1c-0.2,0.1-0.4,0.2-0.5,0.2c-0.1-0.1-0.2-0.2-0.2-0.4c0-0.1,0.2-0.2,0.3-0.2C158.2,101.8,158.3,102,158.5,102.1
		z"/>
	<path d="M160.2,101.1c-0.1,0.1-0.2,0.3-0.3,0.3c-0.1,0-0.3-0.2-0.3-0.2c0-0.1,0.2-0.2,0.3-0.3C160,100.9,160.1,101,160.2,101.1z"/>
	<path d="M157.3,94.8c0,1-0.4,1.5-1.3,1.8c-0.6,0.2-1.1-0.1-1.4-0.5c-0.4-0.4-0.3-0.9-0.1-1.4c0.2-0.5,0.7-0.9,1.2-1.2
		c0.6-0.3,1.3,0.1,1.5,0.8C157.2,94.4,157.3,94.7,157.3,94.8z M155.9,93.9c-0.4,0-1,0.5-1.1,1.1c-0.2,0.7,0.3,1.2,1,1.1
		c0.7-0.1,1.1-0.7,0.9-1.6C156.6,94.1,156.4,93.9,155.9,93.9z"/>
</g>
<g>
	<path d="M174.7,105.1c-0.3,0-0.6,0.1-0.9,0.1c0.1,2.1,0.2,4,0.3,6.1c0.2,0,0.4,0,0.5,0.1c0.1,0.1,0.2,0.2,0.3,0.3
		c-0.8,0.4-1.2,0.2-1.2-0.6c-0.1-1.4-0.2-2.9-0.2-4.3c0-0.4-0.1-0.7-0.1-1.1c0-0.8,0.2-1,0.9-1c0.2,0,0.4,0,0.6,0
		c0-0.3-0.1-0.6-0.1-0.9c0-0.4-0.2-0.9,0.4-1.2c0.1,0-0.1-0.3,0-0.4c0.3-0.4,0.3-0.8,0.2-1.2c0-0.1,0.1-0.2,0.2-0.4
		c0-0.1,0.1-0.2,0.1-0.3c-0.2-0.5,0.1-0.8,0.5-1c-0.3-0.7-0.3-0.7,0.2-1.2c0.1-0.1,0.2-0.2,0.2-0.3c-0.1-0.4,0.2-0.6,0.5-0.7
		c-0.2-0.8-0.1-0.9,0.5-1.2c0-0.8,0-0.8,0.8-1.1c-0.1-0.6,0.3-0.8,0.8-0.8c0.1-0.3,0.1-0.5,0.2-0.7c0.1-0.2,0.4-0.2,0.7-0.3
		c0-0.5,0.1-0.8,0.7-0.8c0.1,0,0.2-0.1,0.2-0.2c0.2-0.4,0.5-0.5,0.9-0.5c0.1,0,0.2-0.1,0.3-0.2c0.2-0.1,0.4-0.2,0.7-0.4
		c0.1,0,0.2-0.1,0.2-0.1c0.1-0.6,0.5-0.5,1-0.4c0.2-0.5,0.6-0.6,1.1-0.4c0.2-0.6,0.8-0.7,1.3-0.9c1-0.3,2-0.6,3.1-0.4
		c0.4,0,0.7,0.1,1,0.4c0.1,0.1,0.4,0.2,0.6,0.2c0.9,0.3,1.9,0.5,2.8,0.8c2.3,0.8,3.8,2.5,4.6,4.7c0.2,0.4,0.1,0.9,0.2,1.4
		c0,0.1,0,0.2,0,0.2c-0.3,0.3-0.4,0.6-0.3,1c0.1,0.3,0,0.7,0,1c0.8,0.3,0.9,0.5,0.8,1.2c0,0.4-0.1,0.6-0.5,0.6c-0.5,0-1-0.1-1.6-0.1
		c-0.6,0-1.3-0.1-1.9-0.1c-0.4,0-0.9,0-1.4-0.1c-0.1-0.5-0.2-1-0.2-1.4c0.7-0.3,0.6-0.3,0.6-1c0-0.7-0.3-1.3-0.6-1.9
		c-0.1-0.2-0.3-0.4-0.4-0.6c-0.5-0.4-1.1-0.7-1.8-0.9c0,0.7,0,1.3,0,1.9c0.1,3.5,0.1,7,0.2,10.5c0,1.1-0.3,2.1-0.8,3
		c-0.5,0.9-1.3,1.2-2.3,1.2c-0.7,0-1.4-0.1-2.1-0.1c-1.2,0-2.5,0-3.8,0c-0.1,0.7-0.7,0.5-1.2,0.5c0,0.4,0,0.7,0.1,1
		c0,0.5,0.1,0.9-0.2,1.4c-0.1,0.1,0,0.2,0,0.3c0.3,1.6,0.9,3.1,2,4.4c0.7,0.9,1.7,1.4,2.9,1.8c0.1,0,0.2,0,0.3,0.1
		c1.2,0.6,3.1,0.2,4.2-0.1c-0.1-0.2-0.1-0.4-0.2-0.6c-0.6-1.5-0.5-2.9,0.4-4.3c0.4-0.6,0.9-1.2,1.3-1.8c0.1-0.1,0.2-0.2,0.3-0.3
		c2.3-1.4,4.7-1.9,7.2-0.1c0.5,0.3,1,0.7,1.4,1.2c0.3,0.4,0.6,0.8,0.8,1.2c0.6,1.4,1,2.9,0.5,4.4c-0.2,0.7-0.5,1.3-0.9,1.9
		c-0.4,0.7-1,1.2-1.8,1.4c-0.7,0.2-1.3,0.4-2,0.6c-0.8,0.2-1.5,0.1-2.2-0.3c-1.3,0.9-2.8,1.3-4.3,1.6c-1.3,0.2-2.5,0.5-3.8,0.4
		c-2.9-0.1-5.6-0.9-7.8-3c-1.1-1.1-1.9-2.4-2.6-3.7c-0.3-0.5-0.5-1.1-0.7-1.7c-0.4-0.9-0.7-1.9-0.8-3c0-0.2,0-0.4-0.2-0.5
		c-0.1-0.1-0.2-0.3-0.2-0.5c-0.1-2.6-0.2-5.2-0.3-7.8C174.7,105.5,174.7,105.4,174.7,105.1z M175.9,114.1c0,0.4,0,0.6,0.1,0.9
		c0.6,2.6,1.7,5,3.5,7.1c0.8,0.9,1.7,1.7,2.9,2.2c2.3,1,4.8,1.3,7.3,1c1.3-0.2,2.4-0.6,3.6-0.9c0.8-0.2,1.5-0.6,2.2-1.2
		c1.3-1.1,2.4-2.4,2.7-4.3c0.2-1.6-0.4-2.4-1.6-2.5c-0.6,0-1.2,0.2-1.8,0.3c-0.4,0.1-0.6,0.5-0.6,0.9c0,0.9-0.5,1.6-1.1,2.2
		c-0.8,0.7-1.8,1.2-2.9,1.3c-1,0.2-2,0.4-3,0.2c-1.2-0.3-2.4-0.7-3.4-1.5c-1.2-1.1-2.2-2.4-2.6-4c-0.2-0.6-0.3-1.1-0.4-1.8
		C179.1,114.1,177.6,114.1,175.9,114.1z M189.1,94.5c0,0.1,0,0.2,0,0.3c0,2,0,4,0,6c0,1.8,0.1,3.6,0.1,5.4c0,1.3-0.6,2.7-2.4,2.8
		c-1.1,0.1-2.3,0.1-3.4,0.2c-0.3,0-0.5,0-0.8,0c0,0.5,0,1,0,1.5c0.4,0,0.7-0.1,1.1-0.1c0.5,0,1,0.1,1.6,0.1c0.9,0,1.9-0.1,2.8,0
		c1.5,0.1,2.6-1,2.8-2.3c0.1-0.7,0.2-1.3,0.1-2c0-2.2-0.2-4.4-0.2-6.6c0-1.6,0-3.3,0-4.9c0-0.4-0.1-0.6-0.4-0.5
		C190,94.4,189.6,94.5,189.1,94.5z M185.4,95.2c-0.5,0.3-0.9,0.4-1.1,0.7c-0.3,0.4-0.6,0.8-1.1,1c-0.1,0-0.1,0.1-0.2,0.2
		c-0.1,0.1-0.3,0.3-0.4,0.4c-0.1,0.1-0.2,0.1-0.2,0.2c0.1,0.4-0.5,0.7-0.4,1.2c0,0.1-0.1,0.2-0.1,0.2c-0.7,0.3-0.4,1.2-0.9,1.6
		c0.2,0.4-0.1,0.6-0.2,0.9c-0.2,0.4-0.1,0.8,0.1,1c0.2,0.2,0.3,0.5,0.3,0.7c0,0.2,0.1,0.4,0.1,0.6c0.4,0.1,0.8,0,1,0.4
		c0,0,0.1,0,0.2,0c0.4,0,0.9,0,1.3-0.1c0.8-0.2,1.3-0.6,1.3-1.5c0-0.4,0.1-0.9,0.1-1.3c0.1-1.4,0.1-2.9,0.1-4.3
		C185.4,96.7,185.4,96,185.4,95.2z M198.2,96.5c-0.2-1.5-0.9-2.8-1.9-3.8c-1.3-1.4-3-1.8-4.7-2.3c-0.3-0.1-0.7-0.1-1-0.2
		c-0.1,1.3-0.3,2.5-0.1,3.6c1.7,0.5,3.4,0.8,4,2.7C195.6,96.5,196.8,96.5,198.2,96.5z M180.7,103.3c-1.9,0-3.7,0-5.5,0
		c0,3.2,0.3,6.5,0.3,9.7c0.2,0,0.4-0.1,0.6-0.1c0,0,0.1,0.3,0.1,0.4c-0.1,0.4-0.4,0.3-0.7,0.3c1.5,0.3,2.9,0,4.2,0.1
		c0.2-0.3,0.3-0.5,0.4-0.5c0.4,0,0,0.4,0.2,0.5c0.6,0,0.6-0.1,0.5-0.6c0-1.2-0.1-2.3-0.1-3.5c0-1.6,0-3.2,0-4.8
		C180.8,104.3,180.8,103.8,180.7,103.3z M181.4,108.3c0.3,0.1,0.7,0,0.9,0.2c0.3,0.3,0.7,0.3,1.1,0.2c0.3,0,0.7,0,1-0.1
		c0.9-0.1,1.9-0.1,2.8-0.2c0.7-0.1,1.1-0.5,1.3-1.1c0.1-0.4,0.2-0.7,0.2-1.1c0-1.3-0.1-2.7-0.1-4c0-2,0-4,0-6c0-0.6,0-1.1,0-1.8
		c-0.4,0-0.7,0.1-1.1,0.1c0,0.2-0.1,0.3-0.1,0.4c-0.1,1.9-0.1,3.8-0.1,5.6c0,1.4,0,2.9-0.1,4.3c0,1.2-0.6,1.9-1.8,2.1
		c-0.9,0.1-1.9,0.1-2.9,0.2c0,0.8-0.8,0.2-1.2,0.5C181.4,107.8,181.4,108,181.4,108.3z M196.9,122.6c-0.4,0.3-0.7,0.6-1,0.9
		c0.1,0.1,0.2,0.1,0.2,0.1c1.1,0.3,3.7-0.5,4.4-1.3c1.3-1.5,1.8-3.2,1.3-5.1c-0.2-0.7-0.4-1.5-0.9-2.1c-0.6-0.6-1.2-1.1-1.9-1.5
		c-1-0.7-2.1-0.9-3.3-0.8c-1,0.1-1.9,0.6-2.8,1c-0.3,0.1-0.6,0.3-0.7,0.5c-0.5,0.6-1,1.3-1.3,2c-0.7,1.3-0.6,2.6,0.2,4
		c0.3-0.2,0.6-0.3,0.9-0.5c-0.1-0.3-0.3-0.5-0.3-0.7c-0.4-1-0.3-1.9,0.3-2.7c0.5-0.7,1.1-1.2,1.7-1.8c0.8-0.8,2-0.7,3-0.8
		c0.3,0,0.7,0,1,0.1c1.5,0.6,2.5,1.8,3.1,3.3c0.4,1.1,0.2,2.3-0.3,3.4C199.8,122.1,198.3,122.9,196.9,122.6z M192.4,119.6
		c0.8-0.5,1.3-1.1,1.2-2c0-0.6,0.4-1.1,1-1.4c1-0.5,1.9-0.4,2.9-0.1c0.5,0.1,0.8,0.4,0.9,0.9c0.1,0.4,0.2,0.8,0.2,1.2
		c0,0.9-0.3,1.8-0.7,2.7c-0.2,0.4-0.5,0.8-0.8,1.3c0.4,0,0.7,0,1-0.1c0.8-0.4,1.5-0.9,1.9-1.8c0.7-1.8,0.4-3.6-1.3-5.1
		c-1.4-1.2-4-0.9-4.9,0c-0.5,0.5-0.9,0.9-1.4,1.5C191.8,117.5,191.8,118.6,192.4,119.6z M182.4,106.4c1.1,0,2.1,0.2,3.1-0.1
		c0.5-0.1,0.9-0.4,1-0.9c0.1-0.4,0.2-0.8,0.2-1.2c0.1-2.9,0.2-5.8,0.3-8.8c0-0.2,0-0.5,0-0.8c-0.3,0-0.6,0.1-0.8,0.1
		c-0.4,0.1-0.5,0.3-0.5,0.7c0,1.9,0.1,3.8,0,5.6c0,0.7-0.1,1.4-0.2,2.1c-0.1,0.7-0.5,1.2-1.1,1.5c-0.4,0.2-0.9,0.2-1.3,0.3
		c-0.3,0-0.5,0-0.9,0.1C182.4,105.5,182.4,105.9,182.4,106.4z M189.9,94c0.1-1.5,0.2-2.9,0.2-4.3c-1.4-0.5-2.6-0.1-3.9,0.2
		c0.5,1.4,0.9,2.7,1.3,4.1C188.3,94,189.1,94,189.9,94z M180.3,102.5c0-0.1,0-0.1,0-0.2c-0.1,0-0.2-0.1-0.3-0.1
		c-0.7-0.1-1.5-0.1-2.2-0.2c-0.6,0-1.3,0-1.9,0c-0.1,0-0.3,0.2-0.4,0.3c0.1,0.1,0.3,0.2,0.4,0.4c0,0,0.1,0,0.1,0
		c1.3,0.2,2.6,0,3.8-0.1C180,102.7,180.1,102.6,180.3,102.5z M182.7,97.2c-0.2-0.3-0.2-0.4-0.3-0.5c-0.9-0.6-1.8-1.3-2.7-1.9
		c-0.3-0.2-0.6-0.2-0.9,0c0,0.4,0.3,0.6,0.6,0.8c0.8,0.5,1.6,0.9,2.4,1.4C182,97,182.3,97.1,182.7,97.2z M180.8,100.4
		c0-0.1,0-0.1,0-0.2c-0.1-0.1-0.2-0.2-0.3-0.2c-1.1-0.4-2.2-0.9-3.4-1.3c-0.3-0.1-0.6-0.2-0.8,0.1c-0.1,0.3,0.3,0.4,0.4,0.6
		c0,0,0.1,0.1,0.2,0.1c1.1,0.3,2.3,0.6,3.4,0.9C180.5,100.4,180.7,100.4,180.8,100.4z M177.4,96.6c-0.1,0.4,0,0.5,0.2,0.6
		c0.8,0.4,1.7,0.9,2.5,1.3c0.3,0.2,0.7,0.3,1,0.5c0.2-0.1,0.3-0.2,0.5-0.4c-1.2-0.7-2.3-1.3-3.5-1.9
		C177.9,96.6,177.7,96.6,177.4,96.6z M182,97.8c-0.1-0.2-0.2-0.3-0.3-0.4c-1-0.6-2-1.2-3.1-1.8c-0.2-0.1-0.4,0-0.6-0.1
		c0,0.1-0.1,0.1-0.1,0.2c0.1,0.1,0.2,0.3,0.3,0.4c0.7,0.4,1.4,0.8,2.1,1.3C180.8,97.7,181.3,97.9,182,97.8z M194.1,99.4
		c0.1,0.6,0.1,0.7,0.7,0.6c1-0.1,1.9,0,2.9,0.2c0.3,0.1,0.6,0,0.9,0.1c0-0.7,0-0.7-0.5-0.6c-0.2,0-0.3,0-0.5,0
		C196.4,99.5,195.3,99.4,194.1,99.4z M180.5,92.7c-0.1,0.7,0,0.9,0.4,1.2c0.7,0.6,1.5,1.2,2.2,1.8c0.2,0.1,0.3,0.2,0.6,0.4
		c0-0.2,0-0.4-0.1-0.4c-0.9-0.9-1.7-1.8-2.6-2.6C180.9,92.9,180.8,92.8,180.5,92.7z M180.5,101.1c0,0,0-0.1,0.1-0.1
		c-0.1,0-0.2-0.1-0.3-0.1c-1-0.3-2.1-0.6-3.1-0.9c-0.3-0.1-0.6-0.1-0.8-0.1c-0.1,0-0.3,0.1-0.4,0.2c0.3,0.5,0.7,0.5,1.1,0.6
		C178.2,100.7,179.3,100.8,180.5,101.1z M184.1,95.3c0.1,0,0.1-0.1,0.2-0.1c0-0.1-0.1-0.2-0.1-0.2c-0.5-0.7-1-1.4-1.6-2.1
		c-0.2-0.3-0.5-0.5-0.8-0.6c-0.1-0.1-0.3,0-0.6,0C182.1,93.6,183.1,94.4,184.1,95.3z M185.1,94.9c-0.3-0.9-2-3-2.5-3.2
		c-0.3,0.2-0.1,0.4,0,0.6c0.3,0.3,0.6,0.7,0.8,1.1c0.4,0.5,0.8,1,1.1,1.4C184.7,94.9,184.9,95,185.1,94.9z M180.1,101.7
		c-0.5-0.4-2.2-0.7-3.6-0.7c-0.3,0-0.5,0-0.8,0c0.1,0.5,0.3,0.6,0.6,0.6C177.6,101.7,178.8,101.7,180.1,101.7z M183.5,91
		c-0.3,0.5,0,0.8,0.2,1.1c0.5,0.8,1.1,1.5,1.6,2.2c0.1,0.1,0.2,0.2,0.4,0.4c0-0.3,0-0.4-0.1-0.6c-0.6-0.9-1.1-1.9-1.7-2.8
		C183.8,91.2,183.7,91.1,183.5,91z M183.3,96.4c-1.1-1-2.1-1.8-3.2-2.6c-0.1-0.1-0.3,0-0.5,0c0.2,0.3,0.3,0.5,0.5,0.6
		c0.9,0.7,1.8,1.3,2.8,2C182.8,96.4,183,96.4,183.3,96.4z M181.2,99.5c-1.1-0.6-2.1-1.1-3.2-1.6c-0.3-0.2-0.7-0.3-1.2-0.1
		c0.1,0.1,0.1,0.2,0.2,0.3c1.3,0.5,2.6,1,3.9,1.6C181,99.7,181.1,99.6,181.2,99.5z M184.6,90.6c-0.1,0-0.1,0.1-0.2,0.1
		c0,0.7,0.5,1.2,0.8,1.8c0.3,0.6,0.7,1.2,1.1,1.9c0-0.7-0.8-2.5-1.3-3.4C184.8,90.8,184.7,90.7,184.6,90.6z M181.4,108.9
		c0,0.8,0,1.5,0,2.2c0.2,0,0.3,0,0.5,0c0.2-0.8,0.2-1.5,0.1-2.2C181.8,108.9,181.6,108.9,181.4,108.9z M182,107
		c0-0.7-0.1-1.4-0.1-2.1c0-0.2-0.2-0.4-0.5-0.3c0,0.8,0,1.6,0,2.4C181.6,107,181.7,107,182,107z M194.4,97.1
		c0.4,0.4,0.8,0.3,1.2,0.3c0.4,0,0.8,0,1.2,0c0.4,0,0.7,0,1.2,0C197.4,97,195.8,96.9,194.4,97.1z M194.6,97.7c0,0,0,0.1-0.1,0.1
		c0.1,0.1,0.2,0.2,0.3,0.2c1,0,2,0,3,0c0.1-0.4-0.2-0.4-0.4-0.4c-0.7,0-1.4,0-2.1,0C195.1,97.7,194.8,97.7,194.6,97.7z M197.8,99
		c0-0.1,0-0.2,0-0.3c-0.8-0.1-2.8-0.1-3.3,0c0,0,0,0.1,0.1,0.1C195.7,98.9,196.7,98.9,197.8,99z M185.6,90.4c0,1.1,0.7,2,1.1,3
		C186.5,92.3,186.2,91.3,185.6,90.4z"/>
	<path d="M180.1,111c0,1.1-0.9,1.9-2,1.9c-1.2,0-2.3-1-2.3-2.1c0-1,1.1-2,2.1-2.1C179.1,108.7,180.1,109.8,180.1,111z M179.6,111
		c0.1-0.8-0.6-1.7-1.6-1.7c-1,0-1.8,0.7-1.7,1.5c0.1,1,0.7,1.5,1.8,1.6C178.9,112.5,179.6,111.8,179.6,111z"/>
	<path d="M179.9,105.9c0,1.1-0.9,2.1-1.8,2c-1.3-0.1-2.2-0.9-2.1-2.1c0-1.1,1-2.2,1.9-2.1C179,103.7,180,104.8,179.9,105.9z
		 M178,107.4c0.8,0,1.4-0.7,1.4-1.5c0-0.9-0.8-1.7-1.7-1.7c-0.7,0-1.4,0.8-1.4,1.7C176.4,106.7,177.1,107.4,178,107.4z"/>
	<path d="M180,103.7c0.1,0.1,0.2,0.2,0.2,0.3c0,0.1-0.1,0.2-0.1,0.4c-0.1-0.1-0.3-0.1-0.3-0.2C179.8,104,179.9,103.8,180,103.7z"/>
	<path d="M175.8,104.3c-0.1-0.1-0.2-0.3-0.2-0.3c0-0.1,0.2-0.2,0.2-0.3c0.1,0.1,0.2,0.2,0.2,0.2C176,104,175.9,104.1,175.8,104.3z"
		/>
	<path d="M199.7,119c-0.2,0.1-0.3,0.3-0.4,0.3c-0.1,0-0.3-0.2-0.3-0.3c0-0.1,0.2-0.3,0.3-0.3C199.4,118.6,199.5,118.8,199.7,119z"/>
	<path d="M192.8,117.5c0.1,0.2,0.3,0.3,0.3,0.4c0,0.1-0.2,0.3-0.3,0.3c0,0-0.3-0.2-0.3-0.2C192.6,117.9,192.7,117.7,192.8,117.5z"/>
	<path d="M198.5,121.7c-0.1-0.2-0.2-0.3-0.2-0.4c0.1-0.1,0.2-0.2,0.3-0.3c0.1,0.1,0.2,0.2,0.2,0.3
		C198.8,121.4,198.7,121.5,198.5,121.7z"/>
	<path d="M196.3,114.8c0.2,0.1,0.3,0.2,0.3,0.3c0,0.2-0.1,0.4-0.3,0.3c-0.1,0-0.3-0.2-0.3-0.2C196,115.1,196.2,115,196.3,114.8z"/>
	<path d="M199.3,116.6c-0.2,0.1-0.3,0.3-0.4,0.3c-0.1,0-0.2-0.1-0.3-0.2c0.1-0.1,0.2-0.3,0.3-0.3
		C198.9,116.4,199.1,116.5,199.3,116.6z"/>
	<path d="M194.4,115.9c-0.2,0.1-0.3,0.2-0.4,0.3c-0.1,0-0.2-0.2-0.2-0.3c0.1-0.1,0.2-0.2,0.3-0.3
		C194.2,115.6,194.3,115.8,194.4,115.9z"/>
	<path d="M177.9,109.8c0.8,0,1.2,0.4,1.2,1c0,0.5-0.5,1.1-1,1.1c-0.6,0-1.3-0.6-1.3-1C176.9,110.3,177.4,109.8,177.9,109.8z
		 M177.9,110.3c-0.3,0-0.6,0.2-0.6,0.6c0,0.3,0.5,0.6,0.8,0.6c0.3,0,0.6-0.3,0.6-0.6C178.6,110.5,178.4,110.3,177.9,110.3z"/>
	<path d="M177.9,106.8c-0.5,0-1-0.4-1-0.9c0-0.6,0.5-1.1,1.1-1.1c0.5,0,1,0.4,1,0.9C179,106.3,178.6,106.8,177.9,106.8z M178,105.3
		c-0.4,0-0.7,0.2-0.7,0.5c0,0.3,0.3,0.6,0.6,0.6c0.4,0,0.8-0.3,0.8-0.6C178.7,105.5,178.4,105.3,178,105.3z"/>
</g>
</svg>
